/* XPM */
static char *c0bdaa3823114770bee3a67116d25b9cKjnmM69QjdRIsKiM[] = {
/* columns rows colors chars-per-pixel */
"64 64 65 1 ",
"  c black",
". c #100717",
"X c #100817",
"o c #110919",
"O c #130B1C",
"+ c #130C1C",
"@ c #140D1E",
"# c #150F1F",
"$ c #160F20",
"% c #171122",
"& c #171123",
"* c #181123",
"= c #191325",
"- c #1A1527",
"; c #1B1628",
": c #1C172A",
"> c #1C182A",
", c #1F1B2F",
"< c #1F1C2F",
"1 c #1F1C30",
"2 c #201C30",
"3 c #221F34",
"4 c #232136",
"5 c #242237",
"6 c #252339",
"7 c #26253B",
"8 c #27263C",
"9 c #28273D",
"0 c #29293F",
"q c #751C1C",
"w c #292940",
"e c #2B2C43",
"r c #2C2C43",
"t c #2D2F45",
"y c #2E2F47",
"u c #2E3047",
"i c #2E3048",
"p c #30324A",
"a c #31344B",
"s c #31334C",
"d c #32364E",
"f c #333750",
"g c #343750",
"h c #353851",
"j c #363A54",
"k c #373C55",
"l c #393E57",
"z c #393F58",
"x c #3B415B",
"c c #3B425C",
"v c #3C425C",
"b c #3D445E",
"n c #3F4661",
"m c #7A705B",
"M c #404762",
"N c #404863",
"B c #414964",
"V c #434C68",
"C c #A72828",
"Z c #D23232",
"A c #BDAE8D",
"S c #D0C8B7",
"D c #EEDBB1",
"F c #FCF2DE",
"G c #FFFBF4",
/* pixels */
"wpcvpwwwwwe6%..>hBBxiwwwwwwwwwwwwpvvpwwww5%>hvpwwwwwwww5%%5wwwww",
"wikkiwwww072;%%,tzncpwwwwwuppuewwikkiwwww5%:aliwwwwwwww5%%5wwwww",
"weiiewwww7:;2663,7lvpwwwwtjvvkuwweiiewwww5%=0itwwwwwwww6%%5wwwww",
"wwwwwwwww5%%6tt5%;pliwwetdlvvkuwwwwwweiit5%%5wwwwwwwew81$%6wwwww",
"wwwwwwwww6%%6tt6%=9itwwikzdipiewwwwwwtkli4%%5wwwwwwwe8>$o*6ewwww",
"wwwwwwww71$$,66,$%5wwwwikktwwwwwwwwetdzli5%$17wwwwww81$oo$16670w",
"wwwwwww7>$OO$%%@o*6wwwweiiewwwwwwwwikzdit6*o$>7wwww7>$oooo$%%>7e",
"wwwwww72$oo@-,,-@$17wwwwwwwwwetpptwikli072$oo$16556<$o$=*%%@o$26",
"rewww7>$ooX-rhjt-o@>7wwwwwwwwtjccjtwuit7>$oooo$%%%%%o$26555,@o$=",
"665561$oo@-7zBnh7-+@17wwwwwwwpcBBcpww071$o$==*%%%%%%%:7tippr2-@o",
"**%%%$OoX-rznbhdht-o@>7wwwwwwpcBBcpww7>$o$1665555555569ukvcxkr-.",
"o@->=$O@-7lBbjttlg2@o$17wwwwwikvvki071$o$>7wwwwwwwwtipigvBBBBk2%",
"o-td0,@-rznbgtwwit9<@o$>7wwwwtippit7>$o$17wwwwwwwwwtkccvnBBBBxe4",
"o;thi5%>hVBxiwtiwww7>$o$166555445562$o$>7wwwtppppiigvnvvnNNnvjiw",
"o@-206%>hVBcitkkuwww71$o$==qqqqqqqqqo$17wwwtjccccxxvnvddvBBvftew",
"ooX@1,@-rhhdtikkiwwww7>$qqqZZZZZZZZZqqqwwwtgvNbxxvnBBvddvBBxiwww",
"oooo@@o+->>28tiiewwwwqqqZZZZZZZZZZZZZZFqqqjbMvgiigvBBnvvnBBxiwww",
"o@-,>>>,>=o@,70wwwwqqFFFZZZZZZZZZZZZZZZFFFqqBxi00ixBBNBBBnvji075",
".-rhhhhhhe=o@:7wwqqFFFFFZZZZZZZZZZZZZZZZZZZZqqi00ixBBNNBBvgtt7>%",
":7lBBBBBBl7>>,35qZZFFFFFZZZZZZZZZFFFZZZZZZZZZZqiidvBBBBnvjt07<@X",
"hlbBBBBBBnlhht,qZZZZFFFZZZZZZZZZFFFFFZZZZZZZZZZqxvnNBBBvgtt7>$oX",
"BBBNNNNnvxxbBl7qZZZZZZZZZZZZZZZZFFFFFZZZZZZZZZFqBBNnvxxjt071@@-,",
"BBBBNNBvdiigbnqZZZZZZZZZZZZZZZZZFFFFFZZZZZZZZFFFqBBvdiiit7>@o-tj",
"xxxvnBBvduudvBqZZZZZZZZZZZZZZZZZZFFFZZZZZZZZZFFFqBBxiww071$o$2db",
"iiidvBBnvxxvnqZZZZZZZZZZZZZZZZZZZZZZZZZZZZZZZFFFFqBxpww7>$o@<9tp",
"0wtdvBNNBBBBNqZZZZZZZZZZZZZZZZZZZZZZZZZZZZZZZZFFFqvhw561$o$>7www",
"0thvnNNNBBBBNqZZZZZZZZZZZZZZZZZZZZZZZZZZZZZZZZZZZqpw,%*$o$17wwww",
"ifvBBNNnvxxvnqZZZZZZZZZZZZZZZZZZZZZZZZZZZZZZZZZZZq5,$ooo$>7wwwti",
"xvnBNNBvdiidvqZZZZZZZZZZZZZFFFZZZZZZZZZZZZZZZZZZZq%$ooo$17wwwtjc",
"BnvvnBBxi00ixqZFFFZZZZZZZZFFFFFZZZZZZZZZZZZZZZZZZq%%%%%>7wwwtgvB",
"BvddvBBxi00ixqSFFFFZZZZZZZFFFFFZZZZZZZZZZZFFFZZZCq4455570wwtjvnB",
"BvddvBBvdiihvxqSFFFZZZZZZZFFFFFZZZZZZZZZZFFFFFZCqtippitwwwtgbBBN",
"NnvvnNNnvxxbnxqSSFFZZZZZZZZFFFZZZZZZZZZZZFFFFSCCqikvvktw0tjvMBBB",
"NBBBNNNNBnvvnxiqSSCCCCZZZZZZZZZZZZZZZZZZZSSSSSCqwixBBvfiigbNvxxx",
"BBBNNNNBBvddvxitqCCCCCCCCCCCCCCCCCCCCCCCCCSSSCqwwixBBnvxxvNbgiii",
"xvnNNNNNBvddvxitkqqCCCCCCCCCCCCCCCCCCCCCCCCCqqwwtfvBNNBBBnvjtwww",
"idvBNNNNNnvvMxiwuitqqqqqqqqqqqqqqqqqqqqqqqqq0wwtjvnNNNNBBvgtwwww",
"0ixBBNNNBnvcxjtwwww5%mAAAAAAAAAAAAAAAAAAAm7wwwtgvBBNNNNBBxi0wwww",
"0ixBBNNBBvgiitwwwww6*mAAAAAAAAA GAAAAAAGAmwwwtjvnBNNNNNBBxi0wwww",
"idvBNNBnvjtwtiiue072%mDDDDDDDDD  DDDDDD DmwwtgbBBNNNNNNNBvftwwww",
"xvnNNBBvgtwtjxcki7:$+mDDDDDDDDD  DDDDDD DmwtjvMBNNNNNNNNNnvjtwww",
"BBNNBnvjt00pcBBvp5%oomDDmDDDDDDDDDDDDDDDDmtgvnvvnNBBBNNNNBBvfiii",
"BNNBBvgtw0wpcBBvp5%X.mDDmDDmDDDDDDDDDDDDDmjbMvddvBBBBBNNNNBnvxxx",
"NNBnvjtwtuwtjvvhw,@+-mDDAmmADDDDDDDDDDDDDmvBBvddvnvxxvnNNNNNBBBB",
"NBBvgtwtkkiwtppw,@o-rmDDDAADDDDDDDDDDDDDDmnBNnvvnvfiidvBNNNNNBBB",
"Bnvjt0wikliww071@o=7lBmDDDDDDDDDDDDDDDDDmBBNNNBBBxi00ixBBNNNNBBB",
"Bvgtwwweiitww7,@o=rlnBmDDDDDDDDDDDDDDDAmmBBBNNNBBxi00ixBBNNNBBBB",
"cjtwwwwww07661@o=7lBBNBmDDDDDDAAAAAAAAmmBnvvnNNNBvdiidvBBBBnvxcx",
"itwwwwwww7>%*$o=rlnBBBBmDDDDDAmmmmmmmmmmBvddvBNNNnvxxvnNBBBvfiii",
"www0755662$oo@-7lBBBBnvjmAAAAmlp;mmmmmmnvkddvBNNNNBBBBBnvxxjtwww",
"www8>%*==%+oo-rlnBBBBvgtwmmmmei9*;mmmmBvddkvnNNNNNBBBBBvfiitwwww",
"555,@Xooooooo,hBBnvxxjtwwwwwwww6;,tlnBBvddvBBNNBBnvxxxxjtwwww074",
"%%%@oXooooooo,hBBvdiitwwwwwwwww072,7lBBnvvnBBBBBBvfiiiitwwwww7;$",
">>>>,,,,,-@oo,hBBxiwttewwwweiieww8,2ulnBBBBnvxxxxjt0wwtut07553,>",
"hhhhhhhhht-..,hBBxitjkiwwwwtkkiwwtdu25lBBBBvfiiiitwwwukli7:%$,th",
"vvvvvvvbBz7-+-rlnxitkkiwtiidzkiwwpvl62ujxccjtwtiitewwiljw,@o=7zB",
"ppppppphbnzt-o=7lcpwuuwtjccldtewwpcnlu22wpptwtjvvjuwwtiw,@o=elnB",
"wwttww0tjvvd2@o>hvpwwwwpcBBciwwwwixBBj2=270wwikvvkiww07,$+-7lBbx",
"wtkkuwwwtppt8,@>hvp0wwwpcBBciwwwwixBBxw2-:7wwtippitww7>@o-rznvgi",
"wikkuwwwwwtit5%>hbhtwwwtjccjtwwwwixBBcp5%@166544444561$oo,hBBxi0",
"wettwwwwwukli4%>hNbjtwwetpptewwwwixBBvp5%o$==%%%%%%%%$Ooo,hBBxi0",
"wetipiewwikli4%>hBBxiwwwwwwwwwwwwixnvji5*oooo@-,,,,:=$+oo,hNbjtw",
"wtjccjuwweiit4%>hBBxiwwwwwwwwwwwwpxvgtr5*oooo-thhhha01$oo,hbhtww",
"wixBBciwwwwww5%>hBBxiwwwwwwwwwwwwpcxiww6*oooo,hBBBBvs6*oo,hvi0ww"
};
