/* XPM */
static char *f47f0d2dff534924fd324a3eb65b557f4YGx2WGdSxmIjrxl[] = {
/* columns rows colors chars-per-pixel */
"64 64 233 2 ",
"   c #040509",
".  c #100717",
"X  c #100817",
"o  c #120B1B",
"O  c #1F0F1C",
"+  c #17111D",
"@  c #220F1F",
"#  c #26141D",
"$  c #33151F",
"%  c #160F20",
"&  c #180F20",
"*  c #171122",
"=  c #191325",
"-  c #1C1729",
";  c #151D28",
":  c #1D192C",
">  c #1F1C30",
",  c #251C28",
"<  c #3A1524",
"1  c #361824",
"2  c #3E1A25",
"3  c #211E32",
"4  c #291831",
"5  c #1F2428",
"6  c #26232D",
"7  c #3A272A",
"8  c #3B342B",
"9  c #242236",
"0  c #2C2A35",
"q  c #25243A",
"w  c #2B253C",
"e  c #29283E",
"r  c #3A2936",
"t  c #342A3D",
"y  c #3E313C",
"u  c #4B1E1F",
"i  c #451C27",
"p  c #442225",
"a  c #4C2426",
"s  c #432B24",
"d  c #43242B",
"f  c #4A272B",
"g  c #4B2A2C",
"h  c #542425",
"j  c #52262C",
"k  c #552B2D",
"l  c #5B2C2D",
"z  c #48362C",
"x  c #57372B",
"c  c #55312C",
"v  c #5C332D",
"b  c #492631",
"n  c #4E2C31",
"m  c #542D33",
"M  c #5C2D31",
"N  c #463637",
"B  c #4B3B33",
"V  c #533334",
"C  c #5B3334",
"Z  c #523C34",
"A  c #5C3936",
"S  c #543C3A",
"D  c #5B3D3B",
"F  c #632E2E",
"G  c #63332E",
"H  c #66382D",
"J  c #6C3B2E",
"K  c #733C2E",
"L  c #632E32",
"P  c #643332",
"I  c #6A3432",
"U  c #643A34",
"Y  c #6C3B33",
"T  c #6F3E39",
"R  c #733C33",
"E  c #793E34",
"W  c #753D39",
"Q  c #494337",
"!  c #574636",
"~  c #54433A",
"^  c #5C433C",
"/  c #5D4A3D",
"(  c #59553C",
")  c #7A442E",
"_  c #65433A",
"`  c #6B443B",
"'  c #634A3D",
"]  c #6C493C",
"[  c #754333",
"{  c #7B4334",
"}  c #7B4936",
"|  c #73433B",
" . c #7C4439",
".. c #75493B",
"X. c #7B4C3B",
"o. c #68573E",
"O. c #6D553C",
"+. c #7F5435",
"@. c #72523E",
"#. c #7C523D",
"$. c #5C6133",
"%. c #686539",
"&. c #627236",
"*. c #73733A",
"=. c #092856",
"-. c #292244",
";. c #2B2B42",
":. c #352C41",
">. c #2E3046",
",. c #2F3048",
"<. c #373446",
"1. c #31344C",
"2. c #343750",
"3. c #363B54",
"4. c #383D56",
"5. c #393E58",
"6. c #493A48",
"7. c #3B414E",
"8. c #3C425C",
"9. c #3B485D",
"0. c #304464",
"q. c #3F4661",
"w. c #49494C",
"e. c #574740",
"r. c #5A4642",
"t. c #5D5345",
"y. c #494355",
"u. c #5D5957",
"i. c #654D42",
"p. c #6C4E43",
"a. c #684845",
"s. c #764B42",
"d. c #655243",
"f. c #6B5244",
"g. c #6D5845",
"h. c #6B564B",
"j. c #6D5A4A",
"k. c #735444",
"l. c #785545",
"z. c #725944",
"x. c #7A5C45",
"c. c #745A4B",
"v. c #7A5D4C",
"b. c #6A5952",
"n. c #775A52",
"m. c #6B6249",
"M. c #77654A",
"N. c #7D614D",
"B. c #686056",
"V. c #7D6353",
"C. c #796858",
"Z. c #404964",
"A. c #424A65",
"S. c #776D63",
"D. c #7E7261",
"F. c #864C2E",
"G. c #824435",
"H. c #844A35",
"J. c #8B4B36",
"K. c #854639",
"L. c #8A4738",
"P. c #844B3A",
"I. c #8B4D3A",
"U. c #924C39",
"Y. c #865937",
"T. c #84523D",
"R. c #8C523C",
"E. c #8D593E",
"W. c #985334",
"Q. c #94533A",
"!. c #99553A",
"~. c #955B3D",
"^. c #9C5C3C",
"/. c #A05739",
"(. c #A35A39",
"). c #896737",
"_. c #926238",
"`. c #9C613E",
"'. c #957339",
"]. c #A9613B",
"[. c #8B5C45",
"{. c #985E41",
"}. c #83634C",
"|. c #8C6749",
" X c #976845",
".X c #897445",
"XX c #9E7342",
"oX c #96744B",
"OX c #846652",
"+X c #856953",
"@X c #8B6C55",
"#X c #846C5A",
"$X c #8B6E5A",
"%X c #926651",
"&X c #867658",
"*X c #8E725C",
"=X c #917257",
"-X c #93745B",
";X c #96785D",
":X c #997A5E",
">X c #A46A43",
",X c #A0684C",
"<X c #A57745",
"1X c #806C6A",
"2X c #8A7967",
"3X c #927760",
"4X c #947962",
"5X c #9B7D62",
"6X c #957E68",
"7X c #70873C",
"8X c #73883A",
"9X c #7A8B45",
"0X c #928B38",
"qX c #8E884B",
"wX c #AB955B",
"eX c #9C8264",
"rX c #918769",
"tX c #94856D",
"yX c #9B836A",
"uX c #968971",
"iX c #A48768",
"pX c #B09668",
"aX c #A58B71",
"sX c #AD9172",
"dX c #B79A78",
"fX c #B59C7C",
"gX c #C09F78",
"hX c #C5A57C",
"jX c #9E9280",
"kX c #BCA483",
"lX c #C1A887",
"zX c #C4AB89",
"xX c #C9B08F",
/* pixels */
";.1.8.8.1.;.;.;.;.;.;.9 * . . - 2.A.A.8.,.;.;.;.;.;.;.;.;.;.;.;.;.1.8.8.1.;.;.;.;.9 * - 2.8.1.;.;.;.;.;.;.;.;.9 * * 9 ;.;.;.;.;.",
";.,.3.3.,.;.;.;.;.e q 3 - * * : ;.5.q.8.1.;.;.;.e ;.>.1.1.>.;.;.;.,.3.3.,.;.;.;.;.9 * - 1.4.,.;.;.;.;.;.;.;.;.9 * * 9 ;.;.;.;.;.",
";.;.,.,.;.;.;.;.;.q - - 3 9 9 3 : q 5.8.1.;.;.;.e ;.3.8.8.3.>.;.e ;.,.,.;.;.;.;.;.9 * = e ,.;.;.;.;.;.;.;.;.;.9 * * 9 ;.;.;.;.;.",
";.;.;.;.;.;.;.;.;.9 * * 9 ;.;.9 * - 1.4.,.;.;.;.;.1.4.8.8.3.>.;.;.;.;.;.;.;.,.,.;.9 * * 9 ;.;.;.;.;.;.;.;.;.q > % * 9 ;.;.;.;.;.",
";.;.;.;.;.;.;.;.;.9 * * 9 ;.;.9 * = e ,.;.;.;.,.3.5.1.,.1.,.9 9 ;.;.;.;.;.;.3.4.,.9 * * 9 ;.;.;.;.;.;.;.;.q - % o = 9 ;.;.;.;.;.",
";.;.;.;.;.;.;.;.q > % % : 9 9 : % * 9 ;.;.;.;.,.3.3.;.;.;.9 ^ ' 9 ;.;.;.;.1.5.4.,.9 * % > q ;.;.;.;.;.;.q > % X X % > 9 9 q ;.;.",
";.;.;.;.;.;.;.q : % o o % * * o X * 9 ;.;.;.;.;.,.,.;.;.9 ^ @X@Xi.9 ;.,.3.5.1.,.;.9 * X % - q ;.;.;.;.q - % X X X X % * * - q ;.",
";.;.;.;.;.;.q 3 % X X o = : : = o % > q ;.;.;.;.;.;.;.9 / @X=X-X+X/ 9 ,.3.4.,.e q 3 % X X % > 9 9 9 9 : % X % = * * * o X % 3 9 ",
";.;.;.;.;.q - % X X X = ;.3.3.;.= X o - q ;.;.;.;.;.q ~ N.i.;XeXi.v./ 9 >.,.;.q - % X X X X % * * * * % X % 3 9 9 9 9 > o X % = ",
"9 9 9 9 9 > % X X o = q 5.A.q.2.q = o o > q ;.;.;.q ! x.x.c.;X5Xc.v.x.! 9 e q > % X % = = * * * * * * * * - q ;.,.1.1.;.3 = o X ",
"* * * * * % o X X = ;.5.q.q.2.1.2.;.= X o : q ;.q Z x.x.}.6X;X5X6XOXx.x.! , - % X % > 9 9 9 9 9 9 9 9 9 9 9 e >.3.8.8.8.3.;.= . ",
"X o = - = % o o = q 5.A.q.3.;.;.4.2.3 o X % > 3 B k.x.@X*XyX;X:X6X=X@Xv.k.! + X % - q ;.;.;.;.;.;.;.;.;.,.1.,.2.8.A.A.A.A.3.3 * ",
"X = ;.1.;.> o = ;.5.q.8.2.>.;.;.,.>.e > o X + B O.z.@X=XiXkXV.n.kXaX=X@Xz.@.B + > q ;.;.;.;.;.;.;.;.;.;.3.8.8.8.q.A.A.A.A.8.;.9 ",
"X - ;.2.1.9 * : 2.A.A.8.1.;.;.,.;.;.;.q - & g @.l.x.}.}.aXzXn.a.zXsX}.}.x.l.k.B 3 ;.;.;.;.1.1.1.1.,.,.2.8.q.8.8.q.A.A.q.8.3.,.;.",
"X o = 3 e 9 * : 2.A.A.8.,.,.3.3.>.;.;.;.3 N @.' @.x.x.x.:XsX^ V sX5Xv.x.x.#.' @.B 9 ;.;.3.8.8.8.8.8.8.8.q.8.1.1.8.A.A.8.2.;.;.;.",
"X X X % > > o = ;.2.2.1.;.,.3.3.,.;.;.w ~ f.eXOX@.x.+X@X-Xl.d 2 k.=X@X+Xx.@.v.iXg.e.e 2.8.A.8.8.8.8.q.A.A.8.1.1.8.A.A.8.,.;.;.;.",
"X X X X o o X o = - - 3 q ;.,.,.;.;.9 / +X#XkXkXp.}.-X+Xc.g $ $ g k.+X-X}.] fXkX#X+Xi.1.A.8.2.,.,.2.8.A.A.q.8.8.q.A.A.8.,.;.;.;.",
"X o - : - - - : : = o o : q e ;.;.q r.@X;XfXfXfX*Xp.k.i.n < < < < n ' k.p.#XfXfXfX;X@Xf.<.8.;.e e ,.8.A.A.A.A.A.A.q.8.3.,.e q 9 ",
". = ;.3.2.2.2.2.2.;.= X o - q ;.9 ' =X=X;XyX3X3X4Xc._ V < < < < < < n _ k.3X4X3XyX4X=X=Xp.>.1.e e ,.8.A.A.A.A.A.A.8.2.;.;.q - * ",
"- q 4.A.A.A.A.A.A.4.q - - : 3 9 6 }.=X;X;X3X3X3X;Xk.m < < < < < < < < n f.*X3X3X3X3X;X-X@Xy 1.1.,.1.8.A.A.A.A.q.8.3.;.e q : % X ",
"2.4.q.A.A.A.A.A.A.q.4.2.2.;.: o ! =X*X3X3X;Xv.+Xc.V < < < 2 < < 2 < < < n k.+Xc.*X3X3X*X=X' >.8.8.8.q.A.A.A.A.8.2.;.;.q - % X X ",
"A.A.A.A.A.A.A.q.8.8.8.8.A.4.9 z @XOXp.+X*Xc.c.V.r < < < j I < < G k 2 < < 7 v.v.g.*X#Xf.v.@Xe.2.A.A.A.q.8.8.8.3.,.e q > % o - : ",
"A.A.A.A.A.A.A.8.1.,.,.2.8.q.0 c.-Xp.OXV.v.c.@X] n i i l { { i i K { G i i g ' OXv.v.V.+X' =XN.t q.A.A.8.1.,.,.,.;.q - o X = ;.3.",
"8.8.8.8.q.A.A.8.1.>.>.1.8.8.N =X}.S -XsX:X@Xk.V d k R R { { < < { { R R l d V p.@X:XsX:XS v.=XS 2.A.A.8.,.;.;.e q > % X o 3 1.8.",
",.,.,.1.8.A.A.q.8.8.8.8.q.8.7 s.A ^ ;X*X+Xv.S d I E J.G.H.H.< < { I.{ J.E Y d V v.+X*X;Xa.V s.d 4.A.A.8.1.;.;.q - % X o : e ;.1.",
"e ;.;.1.8.A.A.A.A.A.A.A.q.<.u.b.b v.3X3X@XD f { { I.].G.J.H.< < { U.{ ].I.E G.j S @X3X3XV.n h.u.t 8.8.2.;.9 9 > % X % - q ;.;.;.",
"e ;.2.8.q.A.A.A.A.A.A.A.1.i.6XaXa.$X3X3X] 2 { Q.W R.^.I.{ I < < G { H.^.Q.W R.H.d _ 3X3X*Xa.yXtXg.q 1.;.: * * % X % > q ;.;.;.;.",
",.2.8.A.A.A.A.q.8.8.8.8.>.j.:X;XOX*X4XV.i j I.!.W P.I.~.E G < < G R ~.R.P.W Q.R.k 2 v.4X*XOX-X:XM., 9 : % X X X % - q ;.;.;.;.,.",
"8.8.q.A.A.A.A.8.1.,.,.1.>.+X5X=Xs.OX3X6.w P R.(.I.I.P.I.H.Y < < I H.I.P.I.I.(.Q.Y w S *XOXs.=X:X=X+ * % X X X % > q ;.;.;.;.3.8.",
"A.q.8.8.q.A.A.8.,.e e ,.:.v.:X@X_ k.+X4 :.|  .!.R.P.W P.>X{ < < Y >XI.W P.R.!. .| :.4 V.k.U +X:X}., * * * * * - q ;.;.;.;.2.8.A.",
"A.8.1.1.8.A.A.8.,.e e ;.r OX;XN._ k.^ 1 k m m C Y T R.<XoXY < < I oX<XE.W Y P m m k 1 S l._ v.;XOX8 > 9 9 9 9 q e ;.;.;.3.8.q.A.",
"A.8.1.1.8.A.A.8.1.,.,.>.~ ;X;Xk.z.=XS u ) R G.R P ).XX#.| I < < L | X. X|.P R { R ) h N -Xx.p.-X;Xe.e 1.1.,.;.;.;.;.;.2.8.A.A.A.",
"A.q.8.8.q.Z.Z.q.8.8.8.0 +X;X;Xk.N.kXh.h H.} Q.^.[ v H.I.~.R < < I ~.I.I.C Y ^.Q.X.H.h r.kXOXp.-X-X@X0 8.8.3.;.;.e ;.3.8.A.A.A.A.",
"A.A.A.A.A.A.Z.Z.A.q.8.0 OX;X-Xl.-XxXh.k P c K.I.Y ` Q.I.^.R < < I ^.I.Q.[ C I.K.v v l r.xX4Xl.-X;X@X0 A.A.8.2.,.,.2.8.A.8.8.8.8.",
"A.A.A.A.A.A.A.A.A.8.1.6 OX-X-X$XaXaXe.P R k G. .U [ R.P.~.R < < P ~.P.I.} P { G.v H I S aXaX*X=X-X@X6 8.A.q.8.8.8.8.A.8.2.,.,.,.",
"8.8.q.A.A.A.A.A.A.8.;.7 @X@X-X@X4Xc.f J.J.k { | Y H Q.I.I.I < < P I.P.Q.Y H | { v H.U.a d.4X@X;X@X=Xz 1.A.A.A.A.A.q.8.3.;.;.;.;.",
",.1.8.A.A.A.A.A.A.q.,./ 5XiX;Xc.OXM.f /.J.V Y | R l R.|.R.I < < P R.|.~.P H  .U C K.(.k g.+Xg.-XiXiX' ,.Z.A.A.A.A.8.2.;.;.;.;.;.",
"e ,.8.A.A.A.A.A.A.q.1.' sXiX+Xv.5X2X1 c c 7 s c s v :XuX@X{ < < R %XuXeXY s c s 7 c c 1 #XyXv.OXiXsXf.,.Z.Z.Z.A.A.8.,.e ;.;.;.;.",
"e ,.8.A.A.A.A.A.A.8.;.' iX5Xv.OXdXtXx '.'.'.'.'.'.|.jXu.2XT.< < } 2Xu.jX%X'.'.'.'.'.'.A 2XfXOXv.:XiXf.1.Z.Z.A.A.A.8.,.e ;.;.;.;.",
",.1.8.A.A.A.A.q.8.3.q ' -XdXiX3XfXc.v >X X#.#.#.T.|.C.  N ).2 < Y.Q   B.%XT.#.#.#. X>XY d.fX5X5XdX-Xf.1.A.Z.A.A.A.8.2.;.;.;.;.;.",
"8.8.q.A.A.A.A.8.2.;.q Z @XgXdX3X#X^ H {.` A A A A _ Q   ; ).2 < ).5   8 a.C A A A ` {.Y S #X4XsXhX=X~ ,.A.A.A.A.A.q.8.3.;.;.;.;.",
"A.A.A.A.A.q.8.3.;.e q N ~ o.o.~ v.' l I.} C C Y [ ..e.=.0.).2 < ).9.=.B ..[ Y C C } R.G ^ N.~ o.o.~ N 1.A.A.A.A.A.A.A.8.2.,.,.,.",
"A.A.A.A.A.8.2.;.;.e q # z.pXwXz.c./ 2 L.^. ...H.W. X2X-.c.|.< < ).N.-.1X,XW.H... .^.I.p ~ v.f.wXpXM.1 1.A.A.A.A.A.A.A.q.8.8.8.8.",
"A.A.A.q.8.3.;.;.;.>.q s O.iXyX' C.uX7 I.{.`.~.T.T.[.2Xe..Xk.< < ' oX/ 2X%XT.T.~.`.{.R.d 2X&X' 3XaXO.z >.8.8.q.A.A.A.A.A.A.A.A.A.",
"A.A.A.8.2.;.;.;.3.3.e z O.M.6X' #XaXd P.#...X.X.X.[.&XqX&Xa.< < ^ &XqX&X|.#.X.X...#.P.f uX2X' 3XN.O.B q ,.1.8.A.A.A.A.A.A.A.A.A.",
"A.q.8.3.;.e ;.,.3.4.e z O.;XyXf.V.j.p J.) d Y E { s.S.t.C.M.< < j.C.t.S.l.[ E R d ) J.a t.C.f.4XeXO.B 6 e ,.8.A.A.A.A.A.A.A.A.A.",
"A.8.2.;.;.;.;.;.,.,.q z +XkXaX+XyX~ p G.F.v L.Q.Q.| D.&XrXf.< < i.rX&XD.s.R.Q.L.H ) G.a B 6X$XyXlX@XB 6 e ,.8.A.A.Z.A.A.A.A.A.A.",
"8.3.;.;.;.;.;.;.;.e 9 z +XkXzXkXlXf.$ I R J (./.H.l a.b.C.Y < < I C.b.a.M [ (./.[ R I 2 / kXkXzXzX*XZ q ,.1.8.A.A.A.A.q.8.8.8.8.",
",.;.;.;.;.;.;.;.;.q = ! z.*XdXxXzXc.# F R v J.].H.M P.[.| I < < P | T.P.M [ ].I.v R L # i.zXxXfX;Xz./ >.8.8.q.A.A.A.A.8.2.,.,.,.",
";.;.;.e q 9 9 9 9 3 + %..XOX*XkXzXc.p R R j E /.H.M I.R.P.I < < I P.I.I.L [ (.{ k R E p d.zXkX*X+X.X*.1.A.A.A.q.8.8.8.3.;.;.;.;.",
";.;.;.q - * * = = * o 8 iXfX*X*XiXc.p K.E j R Q.H.M I.X.R.Y < < P R.X.I.L { !.E j R K.a f.iX3X#XfXiXz 1.A.A.A.8.2.,.,.,.;.;.;.;.",
"9 9 9 : o X X X X X o 8 V.kXeX+X:Xz.p K.G.2 I !.} P !.X.R.R < < I R.X.!.Y [ !.Y < E L.a i.:X@X3XkX#Xz >.8.8.8.2.;.;.;.;.;.e q 9 ",
"* * * o X X X X X X o 8 B sX5X*X:Xg.p J.G.i R P.[ I ^.X.R.R < < I R.X.`.Y Y I.E i E U.a d.:X=X4XsX~ z q ,.,.,.;.;.;.;.;.;.q - % ",
"- - - - : : : : : = o 8 z ;X;X-X:Xg.c !.J.m U A  .P.`.E.~.R < < I ~.R.`.I. .U U m H.!.H d.:X-X;X:XB 8 9 ;.;.;.>.;.e q 9 9 3 : - ",
"2.2.2.2.2.2.2.2.2.;.* 8 Q g.;XN.;Xg.H >XXXXXXXXXE.R.E.<XXXR < < K  X<XE.R.E.XXXX XXX>XJ d.:XN.-Xv.z Q 9 ;.>.3.4.,.q - * % : ;.2.",
"8.8.8.8.8.8.8.q.A.5.9 z ( M.;Xv.-XA v >X XX.| | P C #.#.] J < < H ` #.#.C C | | ..{.>XY V -Xv.-XN.( Q 9 ;.,.4.3.;.: o o = q 5.A.",
"1.1.1.1.1.1.1.2.8.q.,.! M.i.V..XoXC c  X..C m m b m ` ` ` R < < J | ` ` m b m m V | {.H j oX.XV.i.M.( 9 ;.;.,.;.: o X = ;.4.q.A.",
";.;.;.;.;.;.e ;.3.8.1.( qXd.j.0X).M a H.R b I { d m  .R.K.{ < < [ P.R.P.m 7 { Y m Y J.k j ).0Xm.d.qXm.9 ;.e q > % o = q 4.A.8.8.",
";.;.3.3.>.;.;.;.>.1.e $.9X9XqX0XY.M 1 F E Y K.!.b Y I.I.K.{ < < R P.P.R.T b Q.K.Y E I 1 j +.0XqX9X9X$.9 ;.q - o X = ;.5.q.8.2.,.",
";.,.3.3.>.;.;.;.;.;.e $.&.8Xm.f._.C # l { [ H.!.G.} (. .W P < < L W { ^.H.{ !.H.[ { l # k _.O.m.8X&.$.: 9 > % X X : 2.A.A.8.,.e ",
";.;.;.;.;.;.;.;.;.>.>.z &.8X%.j.#.P # l R } L.Q.H.[ !.W G.I < < L K.W Q.H.{ !.P.} R F $ l #.j.%.8X&.Q + * % o X X : 2.A.A.8.,.e ",
";.;.;.,.1.,.;.;.;.,.>.7 ( 7X7Xg.X.P d P I  . .I.G.E I. .J.I < < L J. .K.{ { U. . .I F f C X.z.*.7X( 7 * = % o X X : 2.A.8.3.,.;.",
";.,.3.8.8.3.>.;.e ;.;.:.<.0 8 0 w.y.y.6.:.t t y y y N y y t w w t 6.y.y.6.<.N 0 , @ @ O @ 7 <.w.7.3.<.>.e > % X X : 2.q.2.;.;.;.",
";.1.8.A.A.8.,.;.;.;.e ;.;.9 * - 2.A.A.8.,.;.;.;.;.;.;.;.;.;.;.;.;.1.8.8.,.e ;.9 * X X X X : 2.A.A.A.A.8.1.9 * X X : 2.8.,.e ;.;."
};
