/* XPM */
static char *eda79afa17b744878c0d0f100cc38adfBcLdRFvjsa8BlR3b[] = {
/* columns rows colors chars-per-pixel */
"64 64 202 2 ",
"   c #292940",
".  c #30324A",
"X  c #3B425C",
"o  c #3C425C",
"O  c #2A2A40",
"+  c #2A2A41",
"@  c #2B2B42",
"#  c #2B2C43",
"$  c #252338",
"%  c #171123",
"&  c #100717",
"*  c #100716",
"=  c #1D192B",
"-  c #363A53",
";  c #434B67",
":  c #424A65",
">  c #3B415B",
",  c #2F3149",
"<  c #2A2A42",
"1  c #242136",
"2  c #171022",
"3  c #363A52",
"4  c #3C435D",
"5  c #30324B",
"6  c #242237",
"7  c #171122",
"8  c #2E3048",
"9  c #373C55",
"0  c #2A2940",
"q  c #29283F",
"w  c #26253B",
"e  c #211E33",
"r  c #1B1628",
"t  c #1F1B2E",
"y  c #2E2F46",
"u  c #393E58",
"i  c #3F4661",
"p  c #3B415C",
"a  c #2B2B43",
"s  c #2E3047",
"d  c #2A2B42",
"f  c #242137",
"g  c #1C1729",
"h  c #31344B",
"j  c #383D56",
"k  c #2F3048",
"l  c #25243A",
"z  c #1C172A",
"x  c #1B1528",
"c  c #211E32",
"v  c #242238",
"b  c #221F34",
"n  c #1E1B2E",
"m  c #26253A",
"M  c #393E57",
"N  c #3C425D",
"B  c #2E2F47",
"V  c #373B55",
"C  c #191325",
"Z  c #28283E",
"A  c #2C2C44",
"S  c #242338",
"D  c #2C2D44",
"F  c #161021",
"G  c #31334B",
"H  c #33364E",
"J  c #383E57",
"K  c #1F1C30",
"L  c #160F20",
"P  c #181224",
"I  c #28273D",
"U  c #373C56",
"Y  c #232136",
"T  c #1C182B",
"R  c #130B1B",
"E  c #181223",
"W  c #1F1B2F",
"Q  c #33364F",
"!  c #110818",
"~  c #160F21",
"^  c #26243A",
"/  c #29293F",
"(  c #130B1C",
")  c #150F20",
"_  c #150E1F",
"`  c #120B1B",
"'  c #110918",
"]  c #110919",
"[  c #1D182B",
"{  c #201C30",
"}  c #140D1D",
"|  c #1A1526",
" . c #1D192C",
".. c #140C1D",
"X. c #383C56",
"o. c #1F1C2F",
"O. c #120A1A",
"+. c #252339",
"@. c #100817",
"#. c #191426",
"$. c #2C2D43",
"%. c #363B53",
"&. c #363B54",
"*. c #373B54",
"=. c #393F58",
"-. c #414A65",
";. c #3E4661",
":. c #343851",
">. c #252438",
",. c #130C1C",
"<. c #424A66",
"1. c #2F3148",
"2. c #30334B",
"3. c #2C2C43",
"4. c #221F33",
"5. c #1A1426",
"6. c #181123",
"7. c #3F4762",
"8. c #3D445F",
"9. c #31344C",
"0. c #353951",
"q. c #2D2E44",
"w. c #120919",
"e. c #28273E",
"r. c #3A405A",
"t. c #140D1E",
"y. c #1A1527",
"u. c #1C182A",
"i. c #414964",
"p. c #363A54",
"a. c #2D2E45",
"s. c #343750",
"d. c #424B66",
"f. c #171021",
"g. c #32364E",
"h. c #3D445E",
"j. c #2D2F46",
"k. c #2C2D45",
"l. c #3C435E",
"z. c #404964",
"x. c #414965",
"c. c #3A4059",
"v. c #2B2C42",
"b. c #2D2F45",
"n. c #353851",
"m. c #434C68",
"M. c #404863",
"N. c #3F4761",
"B. c #120A19",
"V. c #150D1E",
"C. c #1B1527",
"Z. c #29283E",
"A. c #424B67",
"S. c #333750",
"D. c #2C2C42",
"F. c #353A52",
"G. c #32354D",
"H. c #2D2D45",
"J. c #3D435E",
"K. c #404862",
"L. c #191425",
"P. c #201D31",
"I. c #27263C",
"U. c #404762",
"Y. c #1D182C",
"T. c #404864",
"R. c #353952",
"E. c #262439",
"W. c #1E1A2E",
"Q. c #33374F",
"!. c #3E455F",
"~. c #3E4660",
"^. c #1E1A2D",
"/. c #262539",
"(. c #191324",
"). c #100818",
"_. c #0F0716",
"`. c #3A415A",
"'. c #2D2E46",
"]. c #3E4560",
"[. c #343850",
"{. c #222034",
"}. c #232035",
"|. c #28283F",
" X c #120A1B",
".X c #1B1729",
"XX c #252439",
"oX c #373D55",
"OX c #383D57",
"+X c #3D455F",
"@X c #140C1C",
"#X c #1B1629",
"$X c #1E1A2C",
"%X c #211F32",
"&X c #2E3046",
"*X c #242337",
"=X c #26263A",
"-X c #211E31",
";X c #27273D",
":X c #150F1F",
">X c #31334C",
",X c white",
/* pixels */
"  . X o .   O + + @ # $ % & * = - ; : > ,   O + + +         + +   . o o .   O < @ 1 2 = 3 4 5   O + + + + < @ 6 7 7 6 @ < + + + ",
"  8 9 9 8 0 + + + q w e r 7 2 t y u i p .   + + 0 a s . . s # 0 0 8 9 9 8 0 0 + d f 2 g h j k 0 + + + + + d @ 6 % 7 6 @ < + + + ",
"+ # 8 8 # + + + d l z x c v v b n m M N .   + 0   B V o o 9 s 0 0 # 8 8 # + 0 + d 6 7 C Z , A + + + + + + d a v % 7 6 @ < + + + ",
"+ + 0 0 + + + d @ 6 2 7 S D D 6 F r G j k 0 0 # B H J o o 9 s 0 + + 0     # 8 k D 6 7 7 6 d < + + + + + d   w K L % v a @ + + + ",
"+ + + + + + + @ a v 7 7 S D D v 2 P I k A 0 0 8 U u H , . 8 # + + + +     B U j , Y 7 % 6 @ d + + + + d @ w T L R E $ # a d + + ",
"+ + + + + + d   w K L L W v v W L % 6 d < + 0 8 U U B     0 0 O O O + # B Q u j , 6 7 L K w   d d d d   w K L ! ! ~ K v v ^ / @ ",
"+ + + + + d @ w T L ( ( ) 7 7 _ R E v @ d + + # 8 8 # 0 0 0 0         8 U u Q k D S E R L T w a @ @ a w T L ` ' ] R L 7 % [ w # ",
"< < < d d   w { L ! ! } |  . .| ..L K w   d + + 0 0 + + + # B . . B @ 8 U X.8 Z ^ { ~ ! ! L K v 6 6 v o.) O.L P E % 7 _ O.L { +.",
"@ @ @ @ a w T L R ! @.#.$.%.&.D #.] _ T w @ d + + + + + 0 B V X X *.B a s k D ^ T L R ] ' R L % % % % ) O.L { $ 6 6 6 W _ O.L P ",
"v 6 6 6 v K L ! ! ..#.m =.-.;.:.>.#.,._ K w   d + + + O   . X <.<.X . 0 + q w K ) O.L P P E % 7 7 7 7 7 7 z ^ D 1.2.2.3.4.5...! ",
"E 6.7 7 7 L ( ! @.#.$.=.7.8.:.9.0.q.5.w._ T w @ d + + O   . X <.<.X . + + m T ) O.L K $ S 6 6 6 6 6 6 6 f +.e.s 9 o X r.9 $.#.& ",
"] t.y.u.C L ( } 5.m M i.8.p.a.B j s.c _ O.) K w   d d + + 8 9 o o 9 k q m K ) O.) T w a @ + + + + + + A k . , s.4 i.i.-.d.9 4.f.",
"! y.a.g./ W _ | $.u i h.s.j.+ @ k y I o._ O.) T w a @ d d A k . . , k.w T ) O.) K w   < + + + + + 0   B 9 X X l.7.z.z.x.<.c.v.Y ",
"' r b.n.k 6 2 = - m.d.> , @ B 8 a + @ w T ) O.L K $ S 6 6 6 Y Y f 6 $ { L O.) T w @ + a B . . . . , , s.l.7.4 4 i M.M.N.4 &.8 + ",
"B.V.C.4.Z.$ 7 = - m.A.p , B 9 U s 0 +   w K ) O.L P P E % 7 7 7 % E P L O.) K w   +   B *.p X p p > > 4 7.4 Q Q o i.i.4 S.B # + ",
"O.] @._ K W _ #.D.F.F.G.H.8 U U 8 0 + d @ w T L R ] ' R L % % L R ' ] R L T w @ + @ y s.J.K.h.> > l.7.i.i.o H H o i.x.> ,   + d ",
"O.] ! O._ _ O.,.L.u.[ P.I.D k 8 # + + + d   w { ~ ! ! L K $ $ K L ! ! ~ { w   +   y &.h.U.4 s., , s.4 i.z.i o o i i.x.> ,   + @ ",
"' } y. .= [ =  .[ C R V.t l q + < + + + + @ # +.P R L Y.w A A w Y.L R E $ a < a B s.l.-.i.r.k Z Z k r.i.T.M.z.i.i.7.4 V 8 Z l 6 ",
"& #.$.- R.0.0.F.R.v.C ! t.z ^ @ @ d + + + @ # $ 6.L { I.+ # # + I.{ L % v @ + B *.l.7.i.i.r.k Z Z k r.i.T.M.M.i.i.4 s.B D ^ u.7 ",
"z E.j d.<.x.x.<.d.M m u.u.W.b 6 6 ^ / @ @   w K L L { $ v 6 6 v $ { L % v @ + . X -.i.M.z.4 Q.k k Q.N z.z.z.z.7.l.*.B Z ^ o._ @.",
"0.j !.x.i.i.i.x.-.~.J F.F.b.^.~ 2 T w # # w T L R R ~ E % 7 7 % E L R E $ @ + . X -.i.M.M.i 4 r.r.N i M.z.i.i.4 s.B A ^ T L O.@.",
"-.-.i.M.M.M.M.i o r.> 8.i.M /.(.R _ K +.+.K _ O.L % 7 7 7 % % % % L R L { m q 8 &.4 i M.M.M.z.i.i.z.M.i N > > V B Z ^ K _ ..y.^.",
"-.x.i.z.M.M.z.N Q 8 k s.h.i M v.C ] L P P L O._ W 6 6 Y 6 6 6 6 v K L O.L T w A B Q N z.M.M.M.T.T.z.z.N Q., , 8 D ^ T _ w.y.q.*.",
"> > r.o i z.z.N Q s s Q N -.d.M m 5...! ).,.5.b $.G G , D < + @ a w T ) O._ K I.a.s.4 i.i.T.T.T.T.i.i.> ,   0 q w K ) O._ c Q.h.",
", , k Q N z.z.i o r.r.o i z.i.i =.q.y.& _.L.$.9 `.N 4 U k + + + <   w K ) O._ P.H !.M.i.i.i.i.i.i.i.x.> . + < m T ) O._ o.I j.2.",
"/ + '.Q N z.M.M.i.i.i.i.M.M.M.U.].9.z ,.C m M i.8.X o 9 B @ s 8 # + @ w T _ O.| q.j r.p p > > > > X o - O 6 v K L O.) T w @ +   ",
"q '.- 4 i M.M.M.i.i.i.i.M.M.T.J.n.I P 5.$.u i h.[., . B @ B 9 U 8 + +   w K L ..| {.3.2.5 . . . . 5 2.+ ^.% 6.L O.) K w   + 0   ",
"1.S.4 x.z.M.M.i 4 r.r.4 i i.i.p . }.F = F.A.-.r.k q / @ B H u U 8 0 + d a $ P ! & _ W v 6 f Y Y Y f 6 W ) ! ! ` L T w @ + a B , ",
"> 4 7.i.M.M.z.4 Q.k k Q.N i.-.X . }.F [ R.d.-.r.k |.q B 9 M H B # + + d @ $ P ' !  XL E 6.% 7 7 7 7 7 ) ` ! ! L K w   +   B V p ",
"i.N.o o i z.i.r.k Z Z k > U.h.9 k Y F T R.d.-.4 S.'.d . N o ,   0 + + < @ 6 E ( F F ( ] ' R L % % 7 7 7 % % % T w @ + @ y s.J.x.",
"i.N Q H o i.i.r.k Z Z , > J.s.B A Y F u.F.d.x.N.4 &.j., o o .   0 + + < @ 6 % ~ P.P.F ! ! L K v 6 6 Y Y f 6 6 ^ / +   y &.J.7.z.",
"i.o Q H o i.i.4 Q.k , [.J.> ,   + +..XW.b.J !.i.x.> , B V 9 8 0 + + + < @ 6 7 E XXl P R L T w a @ A k . . k A + 0 @ y s.h.-.i.M.",
"M.i o o i M.M.i N > > h.7.> ,     Z ^ b ^.XXoX-.-.> , @ B s # + + + + < @ 6 7 E XXXXP L K w   + + 8 9 o o 9 B   / y &.J.U.i.i.i.",
"M.z.z.z.M.M.M.M.i.7.4 4 7.> , @ s , k.f L g [.: -.> ,     0 + + + + + < @ 6 % ~ P.{ L % v a @ 0   , > -.-.4 S.k k s.h.M.4 > > > ",
"i.z.z.M.M.M.M.T.i.N Q Q 4 > , B 9 OX, Y ~ z :.: <.> ,     + + + + + + < @ 6 E ( F ~ ` % v @ d 0   , > i.i.N.4 r.r.4 M.h.s., , , ",
"> N i M.M.M.M.M.z.o Q Q.l.> , B 9 j , Y F = R.i.+XV B 0 + + + + + + + d @ S P ] ! ` L T ^ + + @ y S.4 z.M.M.z.i.i.7.l.&.y       ",
"1.Q.o z.M.M.M.M.M.i 4 l.U.> , @ s k D Y 2  .- ].R.s # + + + + + + + + d a $ P ' ).L K w / +   y &.4 N.M.M.M.M.i.i.4 s.y @ 0 0 O ",
"|.k r.i.T.M.M.M.T.7.l.> > &.B     + @ 6 7 y.q.9.Z +.q d + + + + + + d   w K L ` L T w @ + @ y s.l.i.z.M.M.M.M.T.i.r.k q   + + + ",
"|.k r.i.T.M.M.z.i.l.s., , j.@   0 + a S E } y.g C z m @ d + + + + d @ w T L O.L K w   +   y &.l.7.z.M.M.M.M.M.T.i.r.k q   + + + ",
"1.Q.o z.M.M.z.7.l.&.j.< '., , s # q m { F ] @.& @._ W ^ / @ d d d   w K ) O.) T w @ + @ y s.h.x.z.M.M.M.M.M.M.M.z.4 S.y @ 0 0 O ",
"> N i M.M.z.i.l.s.'.d B &.> X 9 8 XXz L ,.] ! @.@.O._ z ^ a @ @ a w T ) O.) K w   +   y &.J.U.i.M.M.M.M.M.M.M.M.M.N.4 &.y       ",
"i.z.M.M.z.7.l.&.'.q / . X <.<.N 2.6 7 ! ! } y. . .= [ W.b 6 v $ $ K L O.) T w @ + @ y s.J.7.4 o i M.T.T.T.M.M.M.M.z.i.4 S., , , ",
"T.M.M.z.i.l.s.j.d q   . X <.<.N G 6 % @.& 5.D - F.F.F.b.^.F 7 P P L O.) K w   +   y &.h.U.4 H H o i.i.i.i.z.M.M.M.M.z.N.4 > > > ",
"M.M.z.7.l.&.j.@ B s a B *.o o - + W _ ,.L.m M d.<.<.d.J E.C ( ! ' R L T w @ + @ y s.l.x.i.o H H o 7.4 r.r.4 i M.M.M.M.M.z.i.i.i.",
"M.z.i.l.s.'.d B U U 8 @ B . 2.+ ^._ ] #.$.M ~.x.i.i.x.~.J 3.L.* @.~ { w   +   y &.l.7.z.M.i o N N.4 S.k k Q.4 z.M.M.M.M.M.T.T.T.",
"z.7.J.&.y /   8 U X.k + + q ^ W _ R C m M <.i.M.M.M.M.-.d.u m L.@XE S @ + @ y s.l.i.i.M.M.M.z.i.i.r.k Z Z k r.i.T.M.M.M.M.T.T.T.",
"x.J.s.y @ 0 + # 8 k D @ @ ^ T _ ] C $.M ~.i.T.M.z.i.i.i.-.i M $.5.7 6 d O y &.l.7.i.i.z.M.M.M.i.i.r.k Z Z k r.i.T.M.M.M.z.i.i.i.",
"p V B   + d d < + |.^ v $ K _ R C m M <.i.M.T.N.4 > > > > h.i.- = f.Y # B s.l.i.i.i o o i M.M.M.z.4 Q.k k Q.N z.z.z.z.N.4 > > > ",
", B a + + @ @ @ @ ^ T % E L ] C $.M ~.i.T.T.i.4 S., , , , :.].-  .F }.s V l.7.i.i.4 H H o z.M.M.M.i 4 r.r.N i M.z.i.i.4 S., , , ",
"+ + < / ^ 6 6 S $ { L ! ' ..#.m M <.x.z.z.7.l.&.y         8 X.G r E I R.h.i.i.i 4 9 9.H o z.M.M.M.M.i.i.i.i.i.N.4 > > *.B   0 + ",
"+ @ @ w T % 6.P P F ,.' ! y.$.M ~.i.i.i.i.l.s.y @ 0 0 0 0 # k I E r h ].M.i.i.o H 9.9 4 i M.M.M.M.M.i.i.i.x.x.4 S., , B a + + + ",
"f 6 6 W _ @.).! ! ' O.] '  .- d.x.i N > > &.y   0 + + + + + + +.#X^.b.J ~.x.i.o H H 4 i.i.M.M.z.z.N.4 > > > > &.y     + d q XXY ",
"2 2 2 _ O.@.).! ! ' B.] '  .F.d.-.N Q., 1.y @ O + + + + 0 0 + |.^ 4. .>.j <.i.i o o i i.i.i.i.i.i.4 S., , , , y @ + + @ a ^ .X~ ",
"= = = =  . . .$X .y.} ! !  .F.d.-.r.1.d y B # + + 0 0 # 8 8 # + @ I.W %X&Xj ].x.x.i.i.N.4 r.r.> > &.y /   @ B s A q ^ 6 6 b ^.u.",
"R.R.R.R.F.F.F.- - D 5.* &  .- A.-.r.k y V 9 8         B U U 8 0 + '.g.s c *Xj d.-.x.x.4 S.1.k , , y @     s 9 j , ^ z 2 ~ W.j.F.",
"N o o o o o o !.i.=.=XL.,.5.$.M ~.> , B 9 U 8 @ B , , g.u U 8     . 4 J $ c &X*.c.X X &.j.d y , , B # 0 0 k j *.@ W _ R (.m u ; ",
". . . . . . . :.8.7.=.D 5.R C m J X . @ s s a B *.X p OXg.B # 0   . X i j &X4.-X@ 2.. B @ B V o o V s 0 0 D , @ ^._ ] C v.M i : ",
"  @ B B @   / B *.N 4 Q -XV.' T R.o .         . X <.<.p ,   0 +   , > -.d.*.-XC { l q + + k U 4 4 U k + + / ^ W ) ,.L.m M T.h.r.",
"  B 9 9 s     a B . . '.;XW V.T 0.o . /       . X <.<.X ,   0 +   , > -.: c.@ { 5.z ^ @ @ D , 2.2., D @ a w T _ O.| $.u i J.s.1.",
"  8 9 9 s   + +   @ B k k.6 2 = 0.8.:.B a 0 0 B V X X V B 0 + O   , > i.x.X 2.6 2 :XK $ $ 6 Y Y Y Y Y 6 v K L ).). .- A.<.> , q ",
"+ # B B @   + +   s 9 j , Y f.[ 0.M.h.*.B 0 0 # B . . B # + + O   , > i.-.o 2.6 7 R L P P % 2 F F F 2 7 % L ( ' !  .F.d.<.> , / ",
"+ # B , . 8 # 0 0 8 9 j , Y F [ 0.: : > ,   + + 0     0 + + + O   , > 7.l.V 8 6 6.] ] ] ] t.y. . . . .z C ~ ,.] !  .R.M.h.&.B   ",
"  B &.p X V s 0 0 # 8 k D Y 2 [ 0.-.-.> ,   + + + O O + + + + O   . > J.s.B 3.6 E ] ] ] ! y.D - F.R.R.h Z K ~ ' !  .F.8.:.j.a + ",
"  , > : : p ,   + +   + d f 2 [ 0.-.-.> ,   O + + + + + + + + O   . p > ,   + v E ] B.] '  .- ; d.<.d.4 >Xv E ! !  .F.o , / 0 + "
};
