/* XPM */
static char *d750b468b6914147c619463f7d01be6cQzX5iVzuEV8YkCUj[] = {
/* columns rows colors chars-per-pixel */
"64 64 231 2 ",
"   c #10130C",
".  c #100717",
"X  c #110916",
"o  c #130B1B",
"O  c #191E11",
"+  c #16111B",
"@  c #191919",
"#  c #26161B",
"$  c #381E1D",
"%  c #1D2413",
"&  c #1F2816",
"*  c #222415",
"=  c #222B16",
"-  c #232519",
";  c #282819",
":  c #2B2C1B",
">  c #35231B",
",  c #38291D",
"<  c #243117",
"1  c #263218",
"2  c #2B351B",
"3  c #2E391D",
"4  c #313B1F",
"5  c #160F20",
"6  c #171122",
"7  c #191325",
"8  c #1D1E23",
"9  c #1B1629",
"0  c #1D192C",
"q  c #1F1C30",
"w  c #291C26",
"e  c #381723",
"r  c #211E32",
"t  c #1D2226",
"y  c #262827",
"u  c #372825",
"i  c #333322",
"p  c #3A3727",
"a  c #353B22",
"s  c #242235",
"d  c #2B2A35",
"f  c #25243A",
"g  c #29263C",
"h  c #29283E",
"j  c #382B3B",
"k  c #2B3032",
"l  c #3D3734",
"z  c #383538",
"x  c #422C1D",
"c  c #42321D",
"v  c #471F22",
"b  c #442424",
"n  c #452826",
"m  c #552A2B",
"M  c #48352A",
"N  c #443B2C",
"B  c #59342B",
"V  c #4C2732",
"C  c #453936",
"Z  c #593836",
"A  c #6D362E",
"S  c #663A2D",
"D  c #683633",
"F  c #64353B",
"G  c #743C32",
"H  c #7A3E35",
"J  c #3C4326",
"K  c #3F4528",
"L  c #3B4929",
"P  c #3E4C33",
"I  c #41452A",
"U  c #444A2B",
"Y  c #4A4A2E",
"T  c #4D552C",
"R  c #4A4538",
"E  c #564539",
"W  c #5C4C3C",
"Q  c #4E5332",
"!  c #495937",
"~  c #4E563E",
"^  c #515936",
"/  c #58553A",
"(  c #525C3B",
")  c #6F4E2B",
"_  c #77472E",
"`  c #684637",
"'  c #624B3D",
"]  c #7B4434",
"[  c #794839",
"{  c #66563D",
"}  c #7B543C",
"|  c #58662F",
" . c #5D6031",
".. c #56623C",
"X. c #58663E",
"o. c #6B6A37",
"O. c #2B2B42",
"+. c #342E42",
"@. c #2E3147",
"#. c #2F3048",
"$. c #363747",
"%. c #31344C",
"&. c #343750",
"*. c #363B53",
"=. c #383D56",
"-. c #393E58",
";. c #463C4B",
":. c #6C3840",
">. c #3E4446",
",. c #3C425C",
"<. c #3F4661",
"1. c #484745",
"2. c #564A42",
"3. c #595544",
"4. c #505052",
"5. c #674B43",
"6. c #6A5343",
"7. c #655A43",
"8. c #695948",
"9. c #765745",
"0. c #725A44",
"q. c #755148",
"w. c #735B4B",
"e. c #7B5D4B",
"r. c #645752",
"t. c #5B6C42",
"y. c #6C6249",
"u. c #73634D",
"i. c #7B634C",
"p. c #78694B",
"a. c #607447",
"s. c #607548",
"d. c #62784A",
"f. c #796854",
"g. c #797853",
"h. c #414964",
"j. c #424A66",
"k. c #6A6465",
"l. c #786D67",
"z. c #7C726B",
"x. c #864836",
"c. c #8B4C3A",
"v. c #885032",
"b. c #885639",
"n. c #975739",
"m. c #A25839",
"M. c #8C6D38",
"N. c #97653A",
"B. c #95733A",
"V. c #A66D3E",
"C. c #945645",
"Z. c #8F4953",
"A. c #974753",
"S. c #AB4A58",
"D. c #87674D",
"F. c #996945",
"G. c #8E7345",
"H. c #836651",
"J. c #846A54",
"K. c #8B6C55",
"L. c #876E5A",
"P. c #877757",
"I. c #8D725C",
"U. c #917357",
"Y. c #93745B",
"T. c #957A5D",
"R. c #9A7B5E",
"E. c #AD7348",
"W. c #B67948",
"Q. c #877A6A",
"!. c #937962",
"~. c #947A62",
"^. c #9C7E61",
"/. c #72873B",
"(. c #788945",
"). c #7DA451",
"_. c #8C8636",
"`. c #85904F",
"'. c #838357",
"]. c #96815E",
"[. c #B6834A",
"{. c #B18D57",
"}. c #86AA56",
"|. c #9B8362",
" X c #9F8965",
".X c #978469",
"XX c #928672",
"oX c #A48767",
"OX c #A9936C",
"+X c #B1926E",
"@X c #A48B72",
"#X c #A99875",
"$X c #B59B77",
"%X c #97B66B",
"&X c #ABA17E",
"*X c #C48C51",
"=X c #C69153",
"-X c #C19F71",
";X c #CDA86F",
":X c #D2A86D",
">X c #A0C074",
",X c #918F85",
"<X c #A79B84",
"1X c #B99F80",
"2X c #A8A588",
"3X c #BAA985",
"4X c #BFB58E",
"5X c #BAAE91",
"6X c #9FA3A3",
"7X c #C2AC88",
"8X c #C3B28A",
"9X c #C8B68D",
"0X c #D2B98F",
"qX c #C8BC94",
"wX c #CEC298",
"eX c #D6C89D",
"rX c #D4D19D",
"tX c #E1CD9C",
"yX c #CECCAA",
"uX c #DBCEA4",
"iX c #DBD2A8",
"pX c #E3D3A4",
"aX c #E2D6A9",
"sX c #E6DAAD",
"dX c #E6DDB2",
"fX c #E8E3B7",
"gX c #F0EABE",
"hX c #EDEDC1",
"jX c #F2EDC3",
"kX c #F5F4CA",
"lX c #FCFDD4",
/* pixels */
"O.%.,.,.%.O.O.O.O.O.O.s 6 . . 9 &.h.h.,.#.O.O.O.O.O.O.O.O.O.O.O.O.%.,.,.%.O.O.O.O.s 6 9 &.,.%.O.O.O.O.O.O.O.O.s 6 6 s O.O.O.O.O.",
"O.#.*.*.#.O.O.O.O.h f r 9 6 6 0 O.-.<.,.%.O.O.O.h O.@.%.%.@.O.O.O.#.*.*.#.O.O.O.O.s 6 9 %.=.#.O.O.O.O.O.O.O.O.s 6 6 s O.O.O.O.O.",
"O.O.#.#.O.O.O.O.O.f 9 9 r s s r 0 f -.,.%.O.O.O.h O.*.,.,.*.@.O.h O.#.#.O.O.O.O.O.s 6 7 h #.O.O.O.O.O.O.O.O.O.s 6 6 s O.O.O.O.O.",
"O.O.O.O.O.O.O.O.O.s 6 6 s O.O.s 6 9 %.=.#.O.O.O.O.%.=.,.,.*.O.O.O.O.O.O.O.O.#.#.O.s 6 6 s O.O.O.O.O.O.O.O.O.f q 5 6 s O.O.O.O.O.",
"O.O.O.O.O.O.O.O.O.s 6 6 s O.O.s 6 7 h #.O.O.O.#.*.-.%.#.%.#.s s O.O.O.O.O.O.*.=.#.s 6 6 s O.O.O.O.O.O.O.O.f 9 5 o 7 s O.O.O.O.O.",
"O.O.O.O.O.O.O.O.f q 5 5 0 s s 0 5 6 s O.O.O.O.#.*.*.O.O.O.s E ' s O.O.O.O.%.-.=.#.s 6 5 q f O.O.O.O.O.O.f q 5 X X 5 q s s f O.O.",
"O.O.O.O.O.O.O.f 0 5 o o 5 6 6 o X 6 s O.O.O.O.O.%.#.O.O.s E K.K.5.s O.#.*.-.%.@.O.s 6 X 5 0 f O.O.O.O.f 9 5 X X X X 5 6 6 9 f O.",
"O.O.O.O.O.O.f r 5 X X o 7 0 0 7 o 5 q f O.O.O.h 1.1.O.s E K.U.Y.K.W s #.*.=.@.h f r 5 X X 5 q s s s P ~ o X 5 7 6 6 6 o X 5 r s ",
"O.O.O.O.O.f 9 5 o X . 7 O.*.*.O.7 X 5 9 f O.O.t P s.R E i.5.T.|.5.e.W s @.#.O.f 9 5 X X X X 5 6 7 z s.U   5 r s s s s 0 o X 5 7 ",
"s s s s s q 5 X X o 7 f -.h.<.&.f 7 o o q f f y a X.s.p.e.w.T.^.w.e.e.E s h f r 5 X 5 7 7 6 6 6 z s.X.J @ 9 f O.#.%.%.O.r 7 o X ",
"6 6 6 6 6 5 o X . 7 O.-.<.<.&.%.&.O.7 X o 9 8 i Q Q t.d.p..XY.^.~.H.e.e.E r 9 o X 5 q s s s f P d.t.Q Q a 8 h @.*.,.,.,.*.O.7 . ",
"X o 7 9 7 5 o o 7 f -.h.<.*.O.O.=.&.r o X 5 @ i Q Q X.s.d.P.I.R.~.U.K.e.9.E + X 5 9 f O.O.O.>.d.s.X.Q Q a y #.&.,.h.h.h.h.*.r 6 ",
"X 7 O.%.O.q o 7 O.-.<.,.&.@.O.O.#.O.h q o . O a Q Q Q X.s.d.u.w.3X@XU.K.9.{ M + q f O.O.O.>.d.s.X.Q Q Q a y *.,.<.h.h.h.h.,.O.s ",
"X 9 O.&.#.s 6 0 &.h.h.,.%.O.O.#.O.O.O.f 9 + % J Q Q Q Q t.d.d.8.#X.Xi.p.y.0.0.R z $.$.$.1.d.d.t.Q Q Q Q J % d ,.<.h.h.<.,.*.#.O.",
"X o 7 r h s 6 0 &.h.h.,.#.#.*.*.@.O.O.O.r u % J Q Q Q Q X.a.d.d.d.d.d.d.d.d.d.d.d.d.d.d.d.d.s.X.Q Q Q Q J % y %.,.h.h.,.&.O.O.O.",
"X X . 5 q q o 7 O.&.&.%.O.#.*.*.#.O.O.g E N % J Q Q Q Q Q t.d.t.t.t.t.t.t.t.t.t.t.t.t.t.t.d.t.Q Q Q Q Q J % y %.,.h.h.,.#.O.O.O.",
"X X X X o o X o 7 9 9 r f O.#.#.O.O.s W K.E % J Q Q U Y ( X.t.^ Q Q Q Q Q Q Q Q Q Q Q Q ^ t.X.( Q Q Q Q J % d ,.<.h.h.,.#.O.O.O.",
"X o 9 0 9 9 9 0 0 7 X o 0 f O.O.O.f 2.K.T.u.% 4 Y U L Y ..^ Q Q Q Q Q Q Q Q Q Q Q Q Q Q Q Q ^ X.Y U Q Q J % k h.h.<.,.*.#.h f s ",
". 7 O.*.&.&.&.&.&.O.7 X o 9 f O.s ' U.U.T.7.% < 4 L ( ^ Q Q Q Q Q Q Q Q Q Q Q Q Q Q Q Q Q Q Q Q Q L U Y 4 % k h.h.,.&.O.O.f 9 6 ",
"9 f =.h.h.h.h.h.h.-.f 9 9 0 r s y H.U.Y.Y.W % < < ! ..Q Q Q Q Q Q Q Q Q Q Q Q Q Q Q Q Q Q Q Q Q ^ ..L a < % k <.,.*.O.h f 0 5 X ",
"&.=.<.h.h.h.h.h.h.<.-.&.&.O.0 X E Y.I.!.!.w.: = J ( ^ Q Q Q Q Q Q ..X.X.X.X.X.X.X.X...Q Q Q Q Q Q ( ! < = y *.,.&.#.O.f 9 5 X X ",
"h.h.h.h.h.h.h.<.,.,.,.<.h.-.s M K.H.5.J.I.w.N O L ^ Q Q Q Q Q ..X.( ~ ~ ~ g.'.'.~ ~ ( X...Q Q Q Q ^ ( J % k ,.*.#.h f q 5 o 9 0 ",
"h.h.h.h.h.h.h.,.%.#.#.&.,.<.d e.Y.5.H.f.w.w.R ; U Q Q Q Q ..X.g.'.f.C l u.|. X Xu.l l ~ ~ X...Q Q Q ^ Q : t #.#.O.f 9 o X 7 O.*.",
",.,.,.,.<.h.h.,.%.@.@.%.,.,.C U.D.Z Y.OXR.0.p I Q Q Q Q ..G.G.]. X Xf.u.|. X X X|.u.l l C ~ ( ..Q Q Q Q U i s h f q 5 X o r %.,.",
"#.#.#.%.,.h.h.<.,.,.,.,.<.,.u q.Z E Y.I.J.Z i Q Q Q Q ..G.E.E.oX X8X7.W 8XqXqXqXW / u.l l l C ~ ..Q Q Q Q a t f 9 5 X o 0 h O.%.",
"h O.O.%.,.h.h.h.h.h.h.h.<.+.r.w.V e.!.!.6.i U Q Q Q Q t.M.N.E.[.{.eX&X#XaXsXsXsX#X#X4Xr.3.l l R t.Q Q Q Q U y 8 5 X 5 9 f O.O.O.",
"h O.&.,.<.h.h.h.h.h.h.h.%.5.~.@X5.I.!.w.i U Q Q Q Q Q t.G.V.[.*X[.:XpXsXsXsXsXsXsXsXaX5Xl.r.R g.t.Q Q Q Q Q U : X 5 q f O.O.O.O.",
"#.&.,.h.h.h.h.<.,.,.,.,.@.8.R.T.H.I.u.p U Q Q Q Q Q } F.[.*X} ' `.o.fXdXsXsXsXsXsXhXg.%XR 3.5X4Xy.a Q Q Q Q Q U ; 7 f O.O.O.O.#.",
",.,.<.h.h.h.h.,.&.#.#.%.@.J.^.U.q.6.: < J Q Q Q Q a ) V.W.[.B.(.}.T %XhXsXsXsXsXjX%XL }.`.yXjXaX3X{ a Q Q Q Q J < % s O.O.O.*.,.",
"h.<.,.,.<.h.h.,.#.h h #.+.e.R.K.` ' C O = 3 J Q Q 2 ) [.=X=X=X;X}.T ).>XaXsXsXsX>X).L %XfXfXfXsXwXu.: Q Q I 3 = % t f O.O.&.,.h.",
"h.,.%.%.,.h.h.,.#.h h O.u i.T.i.` q.Z w > O = 2 2 < : ) E.[.[.=X:X9XrXrXsXkXkXsXrXrXwXrXdXsXsXeXP.: < 2 2 = O @ s h O.O.*.,.<.h.",
"h.,.%.%.,.h.h.,.%.#.%.@.R Y.T.q.9.U.Z v G B x O & < = = b.*X=X0XpXsXsXsXsX3.3.sXsXsXsXsXsXsXeXT.: = < = O y f f O.O.O.&.,.h.h.h.",
"h.<.,.,.<.h.h.<.,.,.,.d H.T.T.q.i.1Xr.m v.[ v.v., O O O * p.0XaXsXsXsXsXsXwXwXsXsXsXsXsXsXuXP.- O O O y *.&.O.O.h O.*.,.h.h.h.h.",
"h.h.h.h.h.h.h.h.h.<.,.d H.T.Y.e.Y.9Xr.m B B x.c.S S x.] b.u : i qXsXsXsXsXsXsXsXsXsXsXwXi i i H.J.i.y ,.h.,.&.#.#.&.,.h.,.,.,.,.",
"h.h.h.h.h.h.h.h.h.,.%.y H.Y.Y.I.@X@X2.D G m x.] S ` c.x.n.D e e : - - - - - - - - - - ; .X.XJ.U.Y.K.d <.h.<.,.,.,.,.h.,.&.#.#.#.",
",.,.<.h.h.h.h.h.h.,.O.u K.K.Y.K.~.w.n c.c.B ] ` G D n.c.c.D e # < = > F F > $ F F $ = = ; ~.K.Y.K.U.l %.h.h.h.h.h.<.,.*.O.O.O.O.",
"#.%.,.h.h.h.h.h.h.<.#.W ^.oXT.w.H.u.n n.c.B D [ G B b.G.b.D # = < > S.Z.:.> $ :.Z.S.> < = : 0.Y.oXoX5.%.,XgX6Xh.h.,.&.O.O.O.O.O.",
"h #.,.h.h.h.h.h.h.<.%.' +XoXK.e.~.!.e B B u n M n B R.XXK.> = < > A.S.Z.u |.oX$ Z.S.S.> < = : H.oX+X6.z.sXsXjX6Xh.,.#.h O.O.O.O.",
"h #.,.h.h.h.h.h.h.,.O.' oX^.e.H.$X.XB B.B.B.B.M.M.D.<Xr.p & < < > A.Z.:.b |.oXb F Z.A.> < < = : ^.oX6.%.,XaXjX6Xh.,.#.h O.O.O.O.",
"#.%.,.h.h.h.h.<.,.*.g ' Y.$XoX!.1Xw.S E.F.b.} } b.D.f.  - = < < > Z F n |.oXoX Xb F F > < < = i +XY.6.%.k.3XsX,Xh.,.&.O.O.O.O.O.",
",.,.<.h.h.h.h.,.%.O.f Z U.-X$X!.L.E S C.` Z Z Z Z 5.R   J Q Q a < > n T.OXaXsXOXE.n > < 4 Q Q I Y U.E %.k.3XaX,Xh.<.,.*.O.O.O.O.",
"h.h.h.h.h.<.,.*.O.h s C E { { E e.' B c.[ Z Z D _ [ E t K Q Q Q 2 ; T.OXaXsXsXsXW.E.* 1 Q Q Q I : C C @.k.8X5Xk.h.h.h.,.&.#.#.#.",
"h.h.h.h.h.,.&.O.O.h s # 0.OX{.0.w.W e c.n.[ [ x.n.F.N a Q Q Q U i P.OXiXsXsXsXtX=XE.v., U Q Q Q J : w z P.wX,Xh.h.h.h.<.,.,.,.,.",
"h.h.h.<.,.*.O.O.O.@.s n { oX.X' f.XXu c.C.N.n.C.b.C.N J Q Q Q = P.OXiXsXsXsXsX=X*XN.W.N.- Q Q Q I - i 7.].7.$.h.h.h.h.h.h.h.h.h.",
"h.h.h.,.&.O.O.O.*.*.g M { i.~.' L.@Xb x.} [ [ [ } M a Q Q Q Q = .XuXsXsXsXsXsX[.[.=X[.b.- Q Q Q Q J Y ].3.z ,.h.h.h.h.h.h.h.h.h.",
"h.<.,.*.O.h O.#.*.=.g M { T..X6.f.8.b x._ n G H ] M a Q Q Q U R qXeXaXsXsXsXsX:X:X[.W.[.N I Q Q Q J p 7.d #.,.h.h.h.h.h.h.h.h.h.",
"h.,.&.O.O.O.O.O.#.#.f M J.3X@XJ..XE b x.v.B x.n.] , a Q Q Q = 3XsX#XuXsXgXwXwXgXaX:XW.:X{.- Q Q Q J % y h #.,.h.h.h.h.h.h.h.h.h.",
",.*.O.O.O.O.O.O.O.h s M K.7X7X3X7X6.$ D G S m.m.x % J Q Q Q = 3XsX#X&XiXlXOX XlXaX2XOXsX4X- Q Q Q U & @ #.%.,.h.h.h.h.<.,.,.,.,.",
"#.O.O.O.O.O.O.O.O.f 7 E 9.I.$X9X7Xw.# B G B c.v., = J Q Q Q = 3XsX8XN iXlXg.u.lXdXp 3XsX4X- Q Q Q U = & %.,.<.h.h.h.h.,.&.#.#.#.",
"O.O.O.h f s s s s r + o.G.H.I.3X7Xw.b G G m S c = 3 U Q Q Q = OXpXsXy.2XlXp i lX2X7.sXsX4X- Q Q Q Y 3 = y *.h.<.,.,.,.*.O.O.O.O.",
"O.O.O.f 9 6 7 7 7 6 o p oX$XI.I.oXw.b x.H v > 1 a U Q Q Q J c F.;XpX8Xy.<Xi i 2X7.7XsXsXqXY J Q Q Q U 3 = y *.,.&.#.#.O.O.O.O.O.",
"s s s 0 o . X X X X o u f.3X|.K.R.0.b x.A ; a U Q Q U Y Q ; ) W.-XuXsX8X7./ { { 7XsXsXsXeXP.= Q Y I Q U a 1 y @.O.O.O.O.O.h f s ",
"6 6 6 o X . X X X X o u C +X^.I.R.0.> m x K Q Q Q Q U Y Q ; b.;XpXsXsXsX8X8X8X8XsXsXsXsXeXP.= Q Y K Q Q Q U a y t s O.O.O.f 9 5 ",
"9 0 9 9 0 0 0 0 0 7 o p N T.T.Y.H.N , i K Q U U Q Q Q Q Q ; i.wXsXsXsXsXsXsXsXsXsXsXsXsXeXP.= Q Q Q Q Q U U Q I i y 8 r s r 0 9 ",
"&.&.&.&.&.&.&.&.&.O.6 p R 0.T.6.N a K Q Q Q U U Q U U Q Q ; p.eXsXsXsXsXsXsXsXsX<X2XsXsXeXP.= Q Q Y K Q Y U Q Q Q I a - o 0 O.&.",
",.,.,.,.,.,.,.<.h.-.s N / i.J.p J Q Q Q U I Q Q Q U Y Q Q ; p.eXsXsXsXsXsXsX<X<Xl.z.sXsXeXP.1 Q Q Y U Q Q Q U U Q Q Q K - s -.h.",
"%.%.%.%.%.%.%.&.,.<.@./ p.5.8.Y : a Q U J U Q Q K U Q Q Q 2 p 4XsXsXsXsXjXkXXXXXl.z.sXsXqXI 3 Q Q Q U J Q Q Y J U Q a : y &.<.h.",
"O.O.O.O.O.O.h O.*.,.%./ `.6.8._.) , : : 2 K Q U 2 J Q Q Q 4 O 3XsXsXsXsX9X8Xr.r.l.z.<XsX4XO 3 Q Q Q J 2 K Q U 2 : : @ 8 &.h.,.,.",
"O.O.*.*.@.O.O.O.O.%.h ^ (.(.`._.} m # , % = 4 2 < 2 4 4 4 2 O ].uXsXsX3XW E i i 2.l.Q.iX.XO < 4 4 4 2 < 2 4 1 % @ @ h -.<.,.&.#.",
"O.#.*.*.@.O.O.O.O.O.g  .o./.y.6.N.B # m B , % % = < < < < < O p.$XuXsX7.D S ] S p l.z.$XP.O < < < < < & % % @ X . 0 &.h.h.,.#.h ",
"O.O.O.O.O.O.O.O.O.@.@.N o./.o.8.} D # m G G S _ , O O O % O # N T.#X$Xp ] ] n.c.i 1.2.].C B % % O O O O + + o X X 0 &.h.h.,.#.h ",
"O.O.O.#.%.#.O.O.O.#.@.u / /./.0.} D n D D ] ] c.G B S S A m e u qXfXfXR ] ] c.] p yXyXyXu [ E | | U w + 7 5 o X X 0 &.h.,.*.#.O.",
"O.#.*.,.,.*.@.O.h O.O.+.+.d i d 1.h.h.;.+.j j j j j C j C j g d 2.3.3.;.;.$.C d w 3.3.E # u $.4.>.*.$.@.h r 5 X X 0 &.,.&.@.O.O.",
"O.%.,.h.h.,.#.O.O.O.h O.O.s 6 9 &.h.h.,.#.h O.O.O.O.O.O.O.O.O.O.g +.*.,.#.O.O.s 6 o o + X 0 &.h.h.h.h.,.%.s 6 X X 0 &.,.#.h O.O."
};
