/* XPM */
static char *result[] = {
/* columns rows colors chars-per-pixel */
"64 64 211 2 ",
"   c #100717",
".  c #100916",
"X  c #120B1B",
"o  c #141512",
"O  c #151513",
"+  c #1A1E11",
"@  c #16121C",
"#  c #18171A",
"$  c #1B1D1C",
"%  c #381F1C",
"&  c #1D2412",
"*  c #1F2A14",
"=  c #1E211D",
"-  c #222415",
";  c #222B16",
":  c #232619",
">  c #262B18",
",  c #2A2D1A",
"<  c #35211B",
"1  c #3A251D",
"2  c #243117",
"3  c #263218",
"4  c #2B351B",
"5  c #2E391D",
"6  c #313B1F",
"7  c #160F20",
"8  c #171122",
"9  c #191325",
"0  c #1B1924",
"q  c #1C1729",
"w  c #1D192C",
"e  c #1F1C30",
"r  c #211F2F",
"t  c #211E32",
"y  c #1F2223",
"u  c #1F212F",
"i  c #212523",
"p  c #2B2B23",
"a  c #22242B",
"s  c #272B28",
"d  c #242A2B",
"f  c #342A21",
"g  c #2E3225",
"h  c #2D322C",
"j  c #333422",
"k  c #353B22",
"l  c #393D24",
"z  c #31352C",
"x  c #3B3829",
"c  c #242236",
"v  c #262A34",
"b  c #25243A",
"n  c #282939",
"m  c #29293E",
"M  c #302D3A",
"N  c #2A3137",
"B  c #3D3734",
"V  c #373936",
"C  c #41361D",
"Z  c #442723",
"A  c #413B28",
"S  c #423D35",
"D  c #5F3237",
"F  c #64353B",
"G  c #6A373F",
"H  c #354325",
"J  c #3C4326",
"K  c #3F4528",
"L  c #3E4B2B",
"P  c #3F5528",
"I  c #414529",
"U  c #4A432F",
"Y  c #444A2B",
"T  c #484E2E",
"R  c #45572C",
"E  c #494536",
"W  c #574E39",
"Q  c #4E5332",
"!  c #4A5A35",
"~  c #4E563E",
"^  c #515936",
"/  c #565438",
"(  c #525C3B",
")  c #70502F",
"_  c #60563E",
"`  c #56623C",
"'  c #58663E",
"]  c #75663A",
"[  c #2B2B42",
"{  c #2E3047",
"}  c #2F3048",
"|  c #363A44",
" . c #31344C",
".. c #343A4C",
"X. c #393E48",
"o. c #343750",
"O. c #363B53",
"+. c #383D56",
"@. c #393E58",
"#. c #6C3840",
"$. c #3B424C",
"%. c #3C4155",
"&. c #3C425C",
"*. c #3F4661",
"=. c #3E4961",
"-. c #434C45",
";. c #544C45",
":. c #565442",
">. c #505647",
",. c #5D5647",
"<. c #625743",
"1. c #655B43",
"2. c #615751",
"3. c #5B6C42",
"4. c #6C6347",
"5. c #72644D",
"6. c #7D6B4D",
"7. c #607447",
"8. c #607548",
"9. c #62784A",
"0. c #786A52",
"q. c #797853",
"w. c #414964",
"e. c #424A65",
"r. c #6A6464",
"t. c #736A66",
"y. c #796E67",
"u. c #7D746B",
"i. c #7E7D77",
"p. c #80572E",
"a. c #885D37",
"s. c #86693C",
"d. c #976639",
"f. c #A66D3E",
"g. c #98434E",
"h. c #8F4953",
"j. c #A64855",
"k. c #B34D5C",
"l. c #996F44",
"z. c #847145",
"x. c #9A7545",
"c. c #857454",
"v. c #897A5A",
"b. c #927D5C",
"n. c #AE7448",
"m. c #B67948",
"M. c #83786C",
"N. c #768445",
"B. c #7DA451",
"V. c #818058",
"C. c #96815E",
"Z. c #849452",
"A. c #B6834A",
"S. c #B28A56",
"D. c #86AA56",
"F. c #8D8060",
"G. c #958665",
"H. c #9A8462",
"J. c #9F8965",
"K. c #8B8179",
"L. c #A28B67",
"P. c #A6926D",
"I. c #AA966E",
"U. c #A89975",
"Y. c #B19E77",
"T. c #93B167",
"R. c #9DBD71",
"E. c #ABA17E",
"W. c #C2884F",
"Q. c #C48D51",
"!. c #C59052",
"~. c #CA9456",
"^. c #C29F6A",
"/. c #CDA86F",
"(. c #D2A86D",
"). c #A0C074",
"_. c #98978B",
"`. c #A99D85",
"'. c #9FA39F",
"]. c #A8A588",
"[. c #BCAB83",
"{. c #B6AB88",
"}. c #BFB58E",
"|. c #BAAE91",
" X c #C0AF87",
".X c #C3B28A",
"XX c #C7BC8C",
"oX c #D7BF8E",
"OX c #C4BB96",
"+X c #CABD94",
"@X c #CEC298",
"#X c #D3C49A",
"$X c #D6CB9D",
"%X c #D9CA9F",
"&X c #D4D19D",
"*X c #E1CD9C",
"=X c #CECCAA",
"-X c #DCCEA2",
";X c #D0CFAF",
":X c #DED2A6",
">X c #D4D1AC",
",X c #E3D3A4",
"<X c #E2D6A9",
"1X c #E6DAAD",
"2X c #E6DDB2",
"3X c #E8E3B7",
"4X c #F0EABE",
"5X c #EDEDC1",
"6X c #F2EDC3",
"7X c #F5F4CA",
"8X c #FCFDD4",
/* pixels */
"[ } &.&.} [ [ [ [ [ [ t 9     w O.e.=.@.} [ m [ [ [ [ b [ [ [ [ [ { &.&. .[ [ [ [ c 8 w o.&.} [ [ [ [ [ [ [ [ b 8 8 c [ [ [ [ m ",
"m { O.+.{ b [ [ [ b [ e q 8 7 e [ &.=.*.} [ [ [ m [ { } } { [ [ [ { O.O.} [ b [ [ c 8 q } +.} [ [ m [ m [ [ [ e 8 8 b [ [ [ m [ ",
"[ [ } } [ [ [ [ [ [ 9 q e b t t w b @.&.} [ [ [ [ { @.@.&.O.{ b [ [ [ [ [ [ [ [ [ b 8 9 [ } [ [ m [ [ [ [ [ [ b 8 8 b [ [ [ [ [ ",
"m [ [ [ [ [ [ [ [ e 7 7 b [ [ [ 8 w } +.} [ m [ [  .@.*.&.O.{ [ [ [ [ [ [ [ [ } [ c 8 8 c [ [ [ [ [ [ m [ [ b e 7 8 b [ [ m [ m ",
"[ [ [ [ [ [ [ [ [ b 8 8 b [ } b 8 8 m } [ m [ } @.@.o.} } } [ [ m [ [ [ [ } O.@.} c 8 8 c [ [ [ [ [ [ [ [ c q 7 X 8 b [ [ [ [ [ ",
"[ [ [ b [ [ [ [ [ e 7 7 e t t e 8 8 c [ [ [ m { O.@.[ [ [ [ [ [ [ m [ [ }  .@.@.} c 8 8 e c [ [ [ [ [ [ b e 7   X 7 e c e b [ [ ",
"m [ [ [ [ [ [ b 9 7 7   7 8 9 7 X 8 c >.-.[ m [ [ } [ [ [ [ [ [ m m [ } O.@. .} { b 9 X 8 V >.m [ [ [ m q 7 X X X X 7 8 8 w b [ ",
"[ [ [ [ [ b b e 7     7 9 w w 9 X 8 $ Y 9.-.{ [ [ [ [ [ [ [ [ { } } [ } O.O.} [ b w 8 X h 8.R y e c c e 7 X 7 8 8 7 8 7 X 8 e b ",
"[ [ [ [ [ [ w 7 X     9 [ @.O.{ 9 . # l ' 8.-.m [ m [ [ [ } +.&.&.O.} [ [ } [ b w 7 X z 7.' l # 8 8 8 7 X 7 e b b e b w 7 X 7 9 ",
"t t [ t e e 7     7 9 m @.=.*.o.c # j Q Q ' 9.-.[ [ [ m [ } &.w.e.&.} [ [ m m t 7 X z 9.3.Q Q k 8 8 8 9 7 q b [ } o.} } e q X   ",
"q 8 8 8 8 7 X     8 [ @.*.*.o. .o.a j Q Q ' 8.9.$.M [ [ m } &.w.e.&.} [ [ b w @ 7 z 9.8.3.Q Q k 0 c b e b b [ } O.&.&.&.O.} q   ",
"  7 q w 8 7 X 7 9 [ @.*.*.O.[ { ..i k Q Q Q ' 8.N.$.[ [ [ { +.&.&.O.} m b t 7 @ z 8.8.3.Q Q Q l y b [ [ } } } O.*.*.*.=.*.+.e 7 ",
"  9 [ o.[ e 7 9 } &.*.&.o.{ [ [ a & J Q Q Q Q 3.9.9.$.$.| X.$.$.O.O.X.| M a a z 9.9.3.Q Q Q Q J & y m { O.&.&.&.*.=.=.*.*.@.[ e ",
"X q } o. .t 7 w O.=.*.&.} [ [ } a & J Q Q Q Q ` 8.9.N.8.9.9.9.9.9.9.9.9.9.9.9.9.9.8.' Q Q Q Q J & u } o.&.*.&.&.*.=.*.*.*.+.} } ",
"X 7 q t [ t 8 e O.*.*.*.} } O.@.v & J Q Q Q Q Q 3.9.3.3.3.3.3.3.3.3.3.3.3.3.3.3.9.3.Q Q Q Q Q J * v &.&.*.*.o.o.*.*.*.*.o.} } [ ",
"X     7 e e 7 9 [ +.O. .[ } +.+.a & H Q Q Y T ! 3.3.! P Q Q Q Q Q Q Q Q Q Q Q ^ 3.3./ Q Q Q Q K & N =.=.*.&.o.O.*.*.*.@.} b [ [ ",
"  X   X 7 7 X X 9 w w e m [ [ { a & 6 T Y L T ` ^ Q Q Q Q Q Q Q Q Q Q Q Q Q Q Q Q ^ ' T Y Q Q J * d &.=.=.*.*.&.*.e.e.&.} [ [ [ ",
"  7 q q q w w w q 9   7 w b [ [ a & 2 6 L ( ( Q Q Q Q Q Q Q Q Q Q Q Q Q Q Q Q Q Q Q Q Q L Y Y k & u &.w.e.*.*.e.e.*.@.O.} [ b t ",
"  9 [ O.O.O.o.O.O.[ 9   7 q m [ r & 2 2 R ` Q Q Q Q Q Q Q Q Q Q Q Q Q Q Q Q Q Q Q Q Q ^ ` L 5 2 * a &.=.e.*.*.e.e.@.o.{ [ b q 7 ",
"q b @.e.e.e.=.e.w.+.m q w w t c t = * H ( ^ Q Q Q Q Q Q ` ` ' ' 3.` ' ' ' ` Q Q Q Q Q R ( ! 2 * = m &.w.w.*.e.*.*.O.{ [ m e 7   ",
"o.@.*.e.e.e.e.e.w.*.+.O.O.{ w 8 8 # + L ( Q Q Q Q Q ` 3.>.( ~ ( q.v.N.>.:.>.' ` Q Q Q Q ^ ( H & d &.*.=.w.w.w.*.o.{ [ b q 7     ",
"e.e.e.*.*.*.*.*.&.&.&.&.w.@.b 9 X O > Y Q Q Q Q ( 3.q.V.0.S V 5.H.L.J.5.B S ~ ! ' ` Q Q Q ^ Q > N w.w.*.&.&.@.O.{ [ b e 7 7 9 e ",
"=.e.e.*.*.*.=.*. .} } o.&.*.@.[ # : I Q Q Q Q ` z.x.C.J.J.0.5.H.L.H.J.J.5.B B B ~ ( ` Q Q Q Q Y h ..=.&. .{ } { [ b q 7   q [ @.",
"@.*.@.*.*.e.*.&.o.{ } ..&.w.w.+.y j Q Q Q T ` z.n.m.J.L..X1./ XX+X+X+XW / 5.B B B B ~ ` Q Q Q Q l N w.&. .[ [ m b e 7 X 7 e  .*.",
"} } { o.@.*.=.*.*.@.&.*.*.w.w...h Y Q Q Q Q ' s.d.n.n.S.&XE.U.:X1X1X1XU.U.|.2.,.B B E 3.Q Q Q Q Y h X.&.} [ [ c q 7   7 e [ [ } ",
"[ [ [ o.*.e.e.e.*.*.e.*.w.w.O.j Y Q Q Q Q Q 3.l.f.A.!.S./.<X1X1X1X1X1X1X2X>X|.t.2.E q.3.Q Q Q Q Q T g m [ c c e 7 X 7 q b [ [ [ ",
"[ [ O.*.*.*.*.*.*.e.*.e.w...g Y Q Q Q Q T ] f.A.W.] W Z.] 3X2X1X1X1X1X1X5Xq.T.S :.|.}.5.j Q Q Q Q Q Y p 9 9 9 7 X 7 e b [ [ [ [ ",
"{ o.*.*.e.*.e.*.*.@.@.*...i 2 J Q Q Q Q 6 ) f.A.A.d.N.D.R T.4X1X1X1X1X7XR.R D.Z.>X6X:X[._ k Q Q Q Q J 2 & . X X 7 q [ [ [ [ { { ",
"@.*.*.e.*.e.=.*.o.{ { o.@.n + ; 5 J Q Q 4 ) A.Q.Q.Q.(.D.R D.).,X1X1X1X).B.P T.3X3X3X1X+X5.4 Q Q L 5 ; + @     7 e b [ [ [ [ @.&.",
"*.*.&.@.*.*.e.@.{ [ [ { &.&.O.d + ; 4 4 3 < ) f.A.A.~.(.XX&X&X<X7X7X1X&X&X@X&X2X1X1X%Xc., 2 4 4 ; + O @ 7 7 7 q b [ [ [ [ o.*.*.",
"*.@.o.o.*.e.e.@.{ [ b } &.&.o.[ n 0 + * 3 ; ; a.W.!.oX,X,X1X1X1X4.>.1X1X2X<X2X:X1X$Xb.> ; 3 ; + $ c c c t [ t t [ [ [ { @.*.*.*.",
"e.*.o.o.@.e.e.&.o.{ } o.&.&.} [ [ t 0 $ + + + - ] #X,X1X1X1X1X1X@X@X1X1X<X2X2X2X-Xc.- + + + $ n m [ [  .} } } [ [ [ [ o.*.*.*.*.",
"*.*.*.*.*.e.*.*.&.&.&.&.*.@.} [ [ [ c e w u ..%.h 4 j OX1X1X1X1X2X1X1X1X1X1X#Xg g : 9 X w v c [ [ { O.&.&.O.} [ [ { @.&.w.w.w.w.",
"*.=.*.*.*.*.e.*.*.*.&.&.*.@.} [ [ } { c @ w ..e.*.+.{ : : : : : ; ; : : - : : @ w w @ 9 c [ [ [ [ { @.=.e.&.o.} }  .&.w.&.&.@.&.",
"e.*.e.*.e.*.*.e.e.&.o.o.&.&.} } O.@.} c 8 w O.e.e.&.= * ; % D F 1 % G F < ; * O @ 8 X 8 c [ [ [ [  .*.*.w.*.&.@.@.&.w.&. .{ }  .",
"*.*.*.*.e.*.e.*.e.&.o.o.&.&.} } O.@.} c 7 w O.e.&.0 * 2 < j.h.#.% % #.h.j.< 2 * o X 8 w m [ [ u.5X_.*.*.w.w.e.w.w.w.&.O.{ [ [ [ ",
"} o.&.*.e.*.=.*.*.*.*.&.w.&.} [ { { [ c 8 w O.&.i ; 2 < g.k.h.Z b.L.% h.k.j.< 2 ; O w b [ [ t.1X<X6X'.w.*.w.*.w.e.&.o.} [ [ b [ ",
"[ } &.*.*.e.e.e.*.*.&.&.@.O.} [ [ [ [ c 8 q [ y ; 2 2 < g.h.#.Z b.H.Z G h.j.< 2 2 ; $ [ [ [ [ i.<X5X'.w.*.w.w.w.w.@.} b [ [ [ [ ",
"[ } &.*.*.*.*.*.*.&.o. .} } [ [ [ [ [ c 8 X 9 # ; 2 2 < F G Z b.P.P.L.Z F D < 2 3 2 = m [ [ O.r.{.1X_.*.w.w.*.*.e.@.} [ [ [ [ [ ",
"} o.*.*.*.*.*.*.*.O.} [ [ } } } [ [ m e 8 . o J Q Q H 2 1 Z b.P.,X1XP.m.Z % 2 6 Q Q I 0 [ o.*.r. X<X_.&.w.*.w.w.w.&.o.[ [ [ b [ ",
"&.&.*.e.e.e.e.*. .} [ [ O.@.&.@.[ b q 7 X . O K Q Q Q 4 > b.P.,X1X1X1Xm.n.- , Q Q Q I :  .w.&.r..X].r.*.*.e.*.e.w.w.&.O.} [ [ [ ",
"*.*.=.*.*.*.*.&.[ [ [ } &.e.e.&. .e 9     @ l Q Q Q Y j v.I.:X1X1X1X*X~.f.p.1 Y Q Q Q I i @.X.v.+X_.*.*.*.*.e.*.w.w.e.&.o.} } { ",
"*.*.*.*.*.&.o.} [ [ [ } &.e.e.&. .c 8   . $ J Q Q Q ; c.I.:X1X1X1X1X~.Q.d.m.f.- Q Q Q I : j 1.H.2.X.*.*.e.e.*.*.w.*.w.&.&.&.@.@.",
"*.*.*.*.&.O.} [ { { [ { @.&.&.O.[ e 7 X # l Q Q Q Q ; F.-X1X1X1X1X1XA.m.!.W.p.> Q Q Q Q K U b./ | w.*.&.&.*.*.*.w.w.w.w.e.e.e.e.",
"*.*.*.&.o.} [ } O.@.{ [ { { } [ w @   9 y H Q Q Q I U @X$X<X1X1X1X1X(.(.m.m.S.A I Q Q Q J A 4.| w.@.o.} }  .&.*.*.e.e.*.w.w.w.*.",
"*.*.*.O.} [ b } O.@.{ [ [ [ m e 7 X 9 c i J Q Q ^ - {.1XI.:X1X3X#X+X3X<X(.A./.S.- Q Q Q J - N e.w.+.} m [ } &.*.e.*.*.e.w.*.*.w.",
"*.*.o.} [ [ [ [ { { [ [ [ b w X   q [ d * I Q Q Q ; {.1XI.].:X8XP.L.8X<X].P.1X}.- Q Q Q I * d =.e.@.} m [ [ &.e.*.e.*.*.e.e.e.w.",
"&.@.} b [ [ [ [ [ [ m t b e 7 X 9 b ..i ; J Q Q Q - {.1X.XA >X8Xc.5.8X2Xx  X1X.X- Q Q Q I ; i $.w.&. .} } o.*.e.*.*.e.*.&.&.&.@.",
" .} [ [ [ [ [ [ [ b w 8 9 8   9 [ | d * 5 Y Q Q Q ; I.,X1X1.].7Xx g 8X].<.1X2X.X- Q Q Q Y 5 2 i O.w.&.@.@.&.w.w.w.w.w.&.o. .{ } ",
"[ [ [ b b b c b b e 8     X 9 b  .d 2 l Y Q Q Q J C x./.,X.X5.`.x g ].1.[.1X1X+XU J Q Q Q Y 5 ; s O.w.w.w.w.w.w.&.@.&.+.[ [ [ [ ",
"[ [ [ b q 8 8 9 8 8 X X . q } } h k Y Q Q I T Q : ) A.^.-X1X.X1._ _ <. X1X1X1X%Xc.; Q T Y Q Y H 4 s O.w.w.w.w.&.o. .} [ [ [ [ [ ",
"c b b e 8           X   . 0 c N J Q Q Q Q L Y Q > l./.,X1X1X1X.X X X.X1X1X1X1X%Xc.; Q Y L Q Q Q Y 6 z v ..&.&.@.[ [ [ [ [ [ b t ",
"8 8 8 8                 . = k J Q Y Y Q Q Q Q Q > z.#X1X1X1X1X1X1X1X1X1X1X1X1X%Xc.- ^ Q Q Q Q Y Y Q I 6 p a [ [ [ [ [ [ [ m q 7 ",
"w q w w w w w e w q X - k K Q Q Q Y Y Q L T Q Q : 6.#X1X1X1X1X1X1X1X1X`.`.1X1X%Xc.> Q Q T K Q Y Y Q Q Q J k p m [ [ b b t t w q ",
"o.O.O.o.o.O.o.O.@.n $ K Q Q Q Y I Q Q ^ Y Y Q Q < 6.#X1X1X1X1X1X1X{.`.t.u.1X1X%Xc., Q Q T Y Q Q Q Y I Q ^ Q I s m b q 7 7 e { O.",
"&.&.&.&.&.&.&.*.w.O.a , k Q Y H Y Q Q J Y Q Q Q 4 x .X2X1X1X1X7X7XK.M.y.M.1X1X+XI 5 Q Q Q Y J Q Q Y J I Q k > h m w 7 X 9 b @.e.",
" .} } } } } } o.&.=.O.a $ , > 5 K Q L 4 J Q Q Q k + {.<X1X1X1XOX.X2.2.y.y.].2XOX+ 5 Q Q Q J 4 L ^ I 4 4 > s c m w 7   9 [ @.*.w.",
"[ [ } { [ [ [ [ +.&.&.o.w @ O & * k 4 2 4 6 6 5 3 + v.-X1X1X[.W W f f ;.y.M.:XG.+ 2 6 6 6 5 2 3 6 ; & 0 v b b e 7 X 9 m @.e.*.@.",
"[ { O.+.{ [ [ [ [  . .{ b r X 0 i & + ; 2 2 2 2 2 + c.Y.-X1X<.M b M ..x y.M.Y.c.+ 2 2 2 2 ; * & + i v n [ b q 7 X 9 [ @.*.*.o.{ ",
"[ { O.O.{ [ [ [ [ [ [ } [ b 8 w ..| m y & + + + & N S b.I.Y.A m [ } @.f E ;.b.S @ & + & + & = w w a b t b e 7     w O.e.e.@.{ [ ",
"[ [ [ } [ [ [ [ [ { +.+. .b 7 w O.=.&...c c u v b [ h OX2X2XE [ [ } %.j ;X;X=Xf 8 . # @ 8 @ @ 8 X 8 8 8 7 7 7     w O.e.e.@.{ [ ",
"[ [ } } } { [ [ [ { O.+.{ t 7 w O.w.w.&.} m [ [ [ [ m ;.:.:.M [ [  .@.w.;.,.;.t 8 X       X 9 w w w w w 9 7 X X   w o.e.*.O.{ [ ",
"[ } O.@.*.O.[ m [ [ } } [ b 7 w O.w.=.&.} m [ [ [ m [ m m m m [ m } w.@.| [ n b 8     X   w [ O.O.O.O. .[ w 7     e O.*.o.{ [ [ ",
"[ } &.e.e.@.} m [ [ [ [ [ t 7 w O.w.w.&.} [ m [ [ [ m [ m [ [ [ [ } @.@.} m m b 9 X X     w @.e.w.w.w.&. .b 9     w O.@.} b [ [ "
};
