/* XPM */
static char *_40c2c4dbb6e4177a2734f9884822ebcJNaxNG9SRKVdoJkS[] = {
/* columns rows colors chars-per-pixel */
"64 64 200 2 ",
"   c #0D2B45",
".  c #0F2E48",
"X  c #112D47",
"o  c #122F48",
"O  c #15324C",
"+  c #1A334C",
"@  c #1B3650",
"#  c #1E3A54",
"$  c #21354E",
"%  c #26394E",
"&  c #323E4E",
"*  c #233751",
"=  c #223C56",
"-  c #2B3B55",
";  c #263E58",
":  c #2A3F59",
">  c #313D56",
",  c #343E58",
"<  c #2D4156",
"1  c #2D405A",
"2  c #334156",
"3  c #3B4555",
"4  c #34425C",
"5  c #3B445D",
"6  c #3F485C",
"7  c #3D4660",
"8  c #3F4861",
"9  c #454A56",
"0  c #43465D",
"q  c #48475D",
"w  c #45495C",
"e  c #4B4A5E",
"r  c #4B4A54",
"t  c #574E55",
"y  c #524D5E",
"u  c #55515E",
"i  c #5C525D",
"p  c #62545C",
"a  c #67585E",
"s  c #6C595B",
"d  c #695658",
"f  c #755D56",
"g  c #745D5B",
"h  c #7A5F5B",
"j  c #7B5E54",
"k  c #7F6157",
"l  c #7C615C",
"z  c #77615A",
"x  c #434761",
"c  c #454962",
"v  c #4C4B64",
"b  c #524E66",
"n  c #584F66",
"m  c #544E68",
"M  c #555066",
"N  c #5A5265",
"B  c #575069",
"V  c #5C526A",
"C  c #635565",
"Z  c #695666",
"A  c #6C5964",
"S  c #63556C",
"D  c #69576B",
"F  c #67586C",
"G  c #6B596D",
"H  c #655863",
"J  c #755E63",
"K  c #735D6C",
"L  c #7A5F6D",
"P  c #7B5E64",
"I  c #6D5A70",
"U  c #735D71",
"Y  c #795F72",
"T  c #7D6164",
"R  c #76606B",
"E  c #7C616D",
"W  c #7C6174",
"Q  c #836456",
"!  c #876856",
"~  c #84635B",
"^  c #8A665C",
"/  c #8C695C",
"(  c #946C5D",
")  c #A26F5C",
"_  c #A87057",
"`  c #AB735C",
"'  c #AB7E5D",
"]  c #B3765C",
"[  c #B57A5F",
"{  c #BC7C5D",
"}  c #836264",
"|  c #8B6664",
" . c #8D6965",
".. c #84646C",
"X. c #8A666C",
"o. c #8D6A6B",
"O. c #856B67",
"+. c #936A63",
"@. c #9C6D65",
"#. c #946B6D",
"$. c #9B6E6C",
"%. c #9C706A",
"&. c #836474",
"*. c #896774",
"=. c #8D6974",
"-. c #866678",
";. c #896779",
":. c #8D697A",
">. c #946B75",
",. c #9A6E74",
"<. c #936B79",
"1. c #8F7372",
"2. c #9C7175",
"3. c #987878",
"4. c #A16E62",
"5. c #A06F6D",
"6. c #A57164",
"7. c #AC7463",
"8. c #A4726C",
"9. c #AB756D",
"0. c #AD7A6C",
"q. c #A97B67",
"w. c #B37762",
"e. c #B47B64",
"r. c #BA7B64",
"t. c #B47B6B",
"y. c #B77A69",
"u. c #A27372",
"i. c #A87772",
"p. c #A67A70",
"a. c #AD7B72",
"s. c #C67E5F",
"d. c #CA7F5D",
"f. c #C27E62",
"g. c #BC825E",
"h. c #B2835F",
"j. c #AF8665",
"k. c #BB816B",
"l. c #B58268",
"z. c #AF8D7F",
"x. c #B18878",
"c. c #B68478",
"v. c #C3815E",
"b. c #CE825B",
"n. c #D08057",
"m. c #D2835A",
"M. c #D88759",
"N. c #D6885D",
"B. c #DB8B5B",
"V. c #DF905F",
"C. c #E08E5A",
"Z. c #E4935C",
"A. c #ED9B5E",
"S. c #C58164",
"D. c #CB8462",
"F. c #CD8963",
"G. c #C3866B",
"H. c #C6896B",
"J. c #CA896A",
"K. c #D58B61",
"L. c #DA8F63",
"P. c #D18761",
"I. c #DC9264",
"U. c #DE9669",
"Y. c #D59467",
"T. c #C38C70",
"R. c #D09576",
"E. c #E09768",
"W. c #E19A6B",
"Q. c #E89D69",
"!. c #E59965",
"~. c #EEA66E",
"^. c #EEA367",
"/. c #F2A464",
"(. c #FDAC65",
"). c #F4A769",
"_. c #F3AA6D",
"`. c #FAAE6A",
"'. c #FEB36D",
"]. c #E5A372",
"[. c #E7A872",
"{. c #EEAC77",
"}. c #EDAD7B",
"|. c #F3AE74",
" X c #EFB17F",
".X c #F5B177",
"XX c #FAB272",
"oX c #FAB575",
"OX c #FBB473",
"+X c #FFB976",
"@X c #F4B27B",
"#X c #FFBA79",
"$X c #FEBE7F",
"%X c #FDBA7C",
"&X c #EFB585",
"*X c #EDB284",
"=X c #F2B582",
"-X c #F2B886",
";X c #F6B881",
":X c #FCBE83",
/* pixels */
"]..X|.`.O.4 x.{.+XXX|._.;X|.oX#X$X`.|.].}..X-X=X_.Y.K l A.~.-X&X&X-X@X|././.}.*X|.|.@X-X-X|.^.8.K F./. X&X&X&X=X.X_./.~.*X{.|.@X",
").#X$X(.e.N [.'.(.(.(.'.`.`.'.oX#X`.(.+X+X'.OXOX'./.#.l.(.XXXX|.|.XXoXoXXX'._.~.XX:X%X'.OXOX'.G.*./.'.XX|.|.`.oXoXoX'.`.~.|.$X'.",
"_.'.].V.g.N ].].E.N.I.W.L.B.I.m.E.L.B.E.E.E.U.L.E.Q.2.H.Z.K.K.K.U.U.K.K.K.I.E.E.E.L.I.E.L.U.Q.H.2.!.P.P.K.I.E.L.K.K.K.E.E.W..X'.",
"_.).N.m.l.y U.N.b.m.m.N.b.m.b.m.m.N.d.m.m.m.b.m.n.B.u.k.M.b.m.m.m.m.b.b.m.m.m.m.b.m.m.b.m.m.m.H.=.K.b.b.m.m.m.m.b.d.b.m.m.b.Q.'.",
"_._.F.N.e.N T.t.r.d.f.y.r.b.b.b.s.r.s.f.s.d.N.s.S.I.>.l.J.y.N.N.S.S.F.K.N.S.J.F.N.N.s.b.d.r.K.k.E F.f.f.d.d.r.f.b.S.d.r.r.S.W.'.",
"1.3.&.E C c G I E E K G G K T K F V G G D A ..E U R v V S G R K S G R R E K S K *.*.&...E U R C v S S K G D S K E K E U U &.1.z.",
"7 v b n N w 3 3 4 * = 5 1 4 2 ; < < # = = 4 0 v e n v w w 6 4 1 1 w w 6 5 5 4 4 7 5 5 6 e e b n w w w 5 4 : 4 e v b v C N b v x ",
"3.j.j.q.r.e.6.` / 4 e 4.#.#.@.T @.+.a g ~ ` ] w.7.6.6.6.6.` H v | [ $.@.+.+.@.| / T +.] [ 7.6.6.[ { { / v C 6.8.$.@. .e.8.q.h.' ",
"R.E.c.3.2.2.<.<.$.2 J ,.<.<.>.*.:.<.>.<.<.,.,.>.:.:.:.:.:.,.} Z r.a.<.=.*.=.:.<.,.<.<.>.,.8.=.:.,.,.i.e.N X.,.:.:.:.<.<.<.i.I.Z.",
"J.N.a.:.=.;.:.:.$.3 l >.:.<.u.>.;.:.:.;.:.:.:.:.:.;.:.:.:.,.} A t.:.:.>.#.>.:.:.:.:.:.:.:.,.$.;.:.;.2.r.N #.=.*.:.=.:.:.:.>.b.M.",
"D.B.c.:.:.:.=.;.$.6 l ,.:.:.:.:.:.W &.-.:.:.:.:.o.o.:.:.:.>.T i ,.:.:.:.:.:.:.:.:.:.:.:.:.:.>.:.>.=.<.6.b  .<.>.:.:.:.=.;.2.N.M.",
"r.e.p.8.,.;.&.U  .6 g &.-.;.;.:.;.W ..&.-.-.&.*.$.,.:.;.Y ..s 9 o.W ;.-.;.&.W Y &.W ;.-.&.-.;.;.=.&.W +.4 l &.-.;.-.-.&.U &.7.v.",
"0 5 v N v v c 5 4 @ - 4 c 0 c b v v c , - > 0 5 c v v v 5 5 ; ; - 5 c 5 c 0 5 5 5 - > 0 5 x v v v 0 5 > = - , v 5 c c x c x 4 6 ",
"> w 2 < - * O O O O X O O o O X o X . . O X X O O O + O O O * O o O o O * + O . o X o . O O O O + O O @ @ O O $ + O @ - < < 3 0 ",
"8.Y.F.g.@.| K V G G V F G S 4 o 5 V v b G S V G F S N V F S Y N G Y G b 1 4 V b v V G N F G F V N F V Y ..| ) _ ( r 9 ` ] ] v.b.",
"J.M.G.2.<.:.Y V V V V n V F b O v S V V V V V n n n n V V V S V V V V G : - S V V V V V V V n n V V V F D Z Z Z X./ e w.2.u.N.B.",
"S.m.9.U -.:.G b b n v v n B b O V n n n n b n n b v v v n n b b b b b G - 5 V b n b b b n n n b b b v v x x v b K ~ w 8.:.<.f.m.",
"f.m.0.W :.:.Y n n n b V n n b O V n n n n n n V v v b B n n n n b b n S - 0 V n n n n n B v v v v v v c c v n b ..~ e %.=.2.b.M.",
"F.m.9.;.-.;.U n b b b n n V V O S n b b b n b n V B b b b b b b b b v S - 0 V b v b b n V B b b B n n n n v v b E ~ v >.:.2.F.B.",
"[ v.$.L V B c , : 1 : 4 4 4 5 O : 1 1 : : 4 : : 4 : = 4 5 1 1 : : : ; 5 $ * 1 : ; : 1 4 : 4 4 ; : 5 4 1 4 : ; : M N N 7.7.r.b.b.",
"- 2 4 3 4 ; o     . . . . O @ O   o . . . . . . . . . . . . . . . . . .     . . . . . .   . . . . . . . . . . o = @ ; 6 3 3 3 2 ",
"z ! Q h v 4 - 5 v v v - 5 b 5 4 - * * $ - , - , , * . o * - , , * + - > > , * * $ * , , , , , * . * q q q q v n s j l l k k Q ! ",
"F.B.P.8.b 4 S S V S I V V v 1 1 4 4 4 4 5 5 1 4 5 5 o * 4 4 1 4 1 : 4 1 1 4 4 4 4 4 5 c x 5 x 4 + U F V B n S W 8.9.,.u.9.S.B.B.",
"S.m.S.*.b 4 V n n n b n 4 # # # # # = ; # = = # # 1 O - ; # # @ + = # # # # # # # # # = = # 4 5 $ G b b V S n V &.:.-.*.;.i.b.D.",
"D.m.D.=.b 1 F n n B b n c ; # = = = = : = = = # # 4 O * 1 # = = * = @ = = = = = = : = = = # 4 5 $ G n n V D n n G ;.:.>.;.t.F.B.",
"F.m.S.:.b 1 F v b n b b v 1 @ = = # = = = = = # # 4 O - : @ = = # # = # # = # # = = = # # # : > $ G b b b n n n F >.<.<.<.t.m.M.",
"6.7.7.| y : 4 ; 4 4 1 ; 1 1 @ O O o O O O O + O o * X O o o O O o o O + O O o O O O O O o O O O o 1 : : 4 7 c M F &.#.4.6.7.7.w.",
"5 v v 5 5 ; . . + O . . . o o                               .                                     . . o o o o o + = 1 1 5 v v c ",
"^ ( ~ g } h y v 5 O O 0 e v 4 + - * o O + - > - * - - - > - O . + > - - * * - O O + * > > > > 5 v v b 0 O + v e p g f f l ~ / ( ",
"B.B.S.,.,.>.&.&.F - 5 I S V b x 4 1 : 1 4 7 5 1 - * ; : 4 5 * O 4 4 : 1 ; 1 4 1 : 1 4 7 7 5 5 v v v S E @ N >.Y >.u.,.,.9.f.B.M.",
"A.m.f.:.:.:.;.;.F O v V b n n 5 = # ; = # # # = = * + # # : - O 1 # # # # @ + @ = # # = # # @ # # ; 1 G $ C &.;.;.:.=.-.;.9.b.B.",
"Z.m.S.:.>.;.:.:.Y O v S n n v : # = = = = # # = = = * @ = : - O 4 # = * # = @ # # = = = = = # @ = = : D * S G F K -.:.:.:.a.M.M.",
"Z.m.k.;.:.:.;.-.G O v V n n v 4 = = = # = = = # = = ; = # ; - + 4 # = ; = # @ = # # = : 4 = ; ; ; ; 7 A + N A A S G W :.-.u.N.m.",
"b.r.7.#.&.G v 4 4 O - : 4 5 4 = O O O O O + O O O + O O X O O o O O O O O O O + O O O O O O o O ; : 4 4 O : 5 5 b S I =.7.[ r.{ ",
"y n 9 9 4 = O O O O .   . o o                                           .                       . . . .     o O * - 4 3 9 9 y n ",
"l ^ f f d i e 0 e 0 2 q q 5 +   O + O O - * * - - - * + * * - $ - - * O X X + + O $ - * + + * > 5 > q e e e e e e - 2 d f f ~ ( ",
"D.B.f.8.,.=.Y F U I G S G S 5   - 5 1 4 4 5 4 4 1 1 : 1 4 4 7 4 4 4 5 5 o O 5 4 1 4 5 x 5 5 x V F F U F U U U Y @.l e s.r.r.B.C.",
"F.m.9.;.:.;.U n b b b n b v 0 X : = # # # = = # # # # = # # # # # # @ 1 O + : # # # # = = = : b N v b b v v v b K ^ e 7.=.>.b.B.",
"S.d.,.-.;.:.Y b v b n n n n v o 4 = = = = = = @ + # = = = = = # + # # : O * : # # = = = # # : c C Z b n B n b b L ~ y 7.<.>.w.m.",
"f.m.9.-.;.:.-.G V n n n n V N o 4 = = = = = = = = @ = = # @ = ; = # # 4 + - 1 = # = = = = # ; c b S D n n b b n ..~ i 0.,.,.b.m.",
"f.d.$.>.*.W W V x x 7 x 7 8 b o - @ @ + + @ @ @ @ @ O @ @ @ @ + + O O - + * * @ @ + @ @ @ @ * , 7 v v c v 5 4 7 D J u 8.#.X.7.m.",
"p f f h s b q O O @ O O O + @ X           .     .     . .             X X                     . O + + O + O O @ 4 4 - N g s s s ",
"* @ O % + o o O $ * + o O - - + O X X . o O O O O o o . X O O O X X O O + O o o . X O O O $ $ O O @ : - - * O + : : 4 1 = = @ ; ",
",.+.} 4.t + b G I U U b S G M x x 4 5 5 0 x 5 x c 5 o * 5 5 5 x 4 : 7 5 5 x 5 5 4 5 c 5 x G Y 5 - V I U Y U M G U G W X...} | %.",
"S.B.t.>.b + V V n n V n V 5 = = ; = ; ; ; ; = = ; 4 O * ; = = = = = = @ # = = + + = = = = : v v : V b b n V n V b b F =.<.2.K.M.",
"f.m.0.;.v O S n b n b n V 4 = = = = = = = = = = # 4 O - : # # # = = = = = = = # # = = = # @ 1 5 $ S b n n b n n V b I &.:.,.b.m.",
"S.s.u.;.c O S b n n n n n 7 = = = = = = = # = = = 4 O - 1 # @ O # = = # # = = = = = = = = = ; - O c v n n v n n n b F :.:.>.r.m.",
"7.8.,.,.i + v 4 x v x 7 x 4 : # @ + @ @ @ @ # + + 4 O * @ O @ + O + @ # @ @ @ @ @ @ @ # @ O = - o - ; x v x 7 c v c V W &.>.$.e.",
"i h l i < . O O + + + O O + @ o     .   . . .     o         . .     . o . .     . . . . .   X X       O + O O @ - : 5 v H g h i ",
"$ = ; 2 9 % $ $ O   . + $ $ $ o O o     . O O O O O O O O O X . X O O O o o O     . o O O O O O $ $ $ o . o $ : * * O - < < w < ",
"` ( Z T $.G F Y V o - G G F F 5 5 4 * - , x c 5 5 4 4 4 5 x * o : 7 4 4 : 4 5 - - : 5 c 7 4 4 5 v V Y n o 5 U F V V b ..@.) e.` ",
"F.F.,.;.;.F b n S + q V n v v 5 = = ; = @ ; ; # = = = = = 1 = O 1 = = # @ = ; ; = = ; ; ; = = # # ; v S + b n v b n n I :.<.r.B.",
"S.d.,.:.:.F B n F + v V n v v 4 = = = @ @ # @ @ ; 4 ; = # : - O 4 # = # @ # = ; = # = = = = ; # # = x S $ b V b b n b V ;.:.r.M.",
"F.b.>.;.>.S n n S + v V n n n 5 = = = = = = = = = = = = = ; - O 4 = = = = = = # @ = = = = = = = # 1 b V * V V n b n n S -.:.r.B.",
"r.S.,.<.&.n c 4 b + 0 c v v v 4 @ @ # @ @ # @ @ @ # # @ O @ * O - @ ; : = @ @ # @ @ : ; @ @ = ; # * * w + v x v c v b F ;.,.y.S.",
"e ^ ~ J N 0 - @ O   o O @ + @ O . . .     . .   . X X .     .       X o o o . o .   . .     o o o     .   o O @ * - 0 p J ~ ^ g ",
"w 4 ; * + O O O + O o + + o .   X o . X O o . . . . o o o . . . . . o X O . o .   X X X o o o . . . . o O o + + o o o O O * 1 w ",
"=.K N S S V F F Y G S G U G 4 . w F M M G v 4 : 4 4 5 5 x 5 4 4 4 4 b 5 + $ x 4 : 4 7 4 4 4 4 4 5 5 4 V G S G U G 4 o v F N D &.",
"E >.S n n n V B V V V n V S b o C C V V V n n v n b n n b b n n n n V F * - V b n n n n b v b v n n n V V V n V S v O b V V ..>.",
"P =.V b c v b n n n n n b B b O A V b v v n n b B b V V b v b n n S V V - 6 V b n n n n n v n v b n b v v b v v V v + S n v &.,.",
"o.,.C b N v v n b n n n b n b O S n n V n n B S V n n n V n b b S G V C - 0 V V V n b b n b 7 4 x n S V v v b b V y $ S n b X.2.",
"O.8.T V F S V S S V B S V F C O G V b b b n V S V b v V V V V S n b b  .> t A b V v b V V V v 5 V V b v n b v v C a $ A n V ..*.",
"| t.7.7.y.$.%.=.*.#.E #.} +.A + o.&...J U Y Y ..=.W K #.&.Y Y ..G L X.@.> r X.E F S ..&.I U Y E W X.G I E A I K X.s O C E X.>.$.",
"( B.N.F.9.8.,.>.u.9.y.b.m.f.~ 2 p.i.8.,.u.8.,.>.>.;.;.,.>.-.<.,.*.*.-.8.& - #.,.*.#.W G G W #.A G G *.K K $.,.K K e @ u E T } h "
};
